<svg width="32" height="32" viewBox="0 0 32 32" fill="none" xmlns="http://www.w3.org/2000/svg">
<path d="M2.9087 3.00008C2.64368 2.99655 2.3907 3.11422 2.21764 3.32152C2.04458 3.52883 1.96915 3.80455 2.01158 4.07472L5.81987 27.9484C5.91782 28.5515 6.42093 28.9949 7.01305 28.9999H25.283C25.7274 29.0058 26.109 28.6748 26.1801 28.2217L29.9884 4.07935C30.0309 3.80918 29.9554 3.53346 29.7824 3.32615C29.6093 3.11885 29.3563 3.00118 29.0913 3.00471L2.9087 3.00008ZM18.9448 20.2546H13.1135L11.5346 11.7362H20.3578L18.9448 20.2546Z" fill="#2684FF"/>
<path fill-rule="evenodd" clip-rule="evenodd" d="M28.7773 11.7363H20.3577L18.9448 20.2547H13.1135L6.22803 28.6944C6.44627 28.8892 6.72451 28.9976 7.01301 29.0001H25.2874C25.7319 29.006 26.1135 28.675 26.1846 28.2219L28.7773 11.7363Z" fill="url(#paint0_linear_2943_14741)"/>
<defs>
<linearGradient id="paint0_linear_2943_14741" x1="30.724" y1="14.1218" x2="20.5759" y2="28.0753" gradientUnits="userSpaceOnUse">
<stop offset="0.18" stop-color="#0052CC"/>
<stop offset="1" stop-color="#2684FF"/>
</linearGradient>
</defs>
</svg>
