<svg width="32" height="33" viewBox="0 0 32 33" fill="none" xmlns="http://www.w3.org/2000/svg">
<g filter="url(#filter0_d_2943_14736)">
<path d="M2 11.9556C2 8.47078 2 6.7284 2.67818 5.39739C3.27473 4.22661 4.22661 3.27473 5.39739 2.67818C6.7284 2 8.47078 2 11.9556 2H20.0444C23.5292 2 25.2716 2 26.6026 2.67818C27.7734 3.27473 28.7253 4.22661 29.3218 5.39739C30 6.7284 30 8.47078 30 11.9556V20.0444C30 23.5292 30 25.2716 29.3218 26.6026C28.7253 27.7734 27.7734 28.7253 26.6026 29.3218C25.2716 30 23.5292 30 20.0444 30H11.9556C8.47078 30 6.7284 30 5.39739 29.3218C4.22661 28.7253 3.27473 27.7734 2.67818 26.6026C2 25.2716 2 23.5292 2 20.0444V11.9556Z" fill="white"/>
<g clip-path="url(#clip0_2943_14736)">
<path d="M27 12.0879L26.2042 9.994L26.7586 8.79276C26.7933 8.71696 26.8037 8.63281 26.7884 8.55122C26.7731 8.46963 26.7329 8.39437 26.6729 8.33522L25.1664 6.8615C24.8435 6.54386 24.434 6.32169 23.9858 6.22088C23.5376 6.12007 23.069 6.14478 22.6347 6.29213L22.2219 6.43325L19.9235 4.021L16.0003 4L12.0765 4.02979L9.78064 6.46157L9.37188 6.32143C8.93479 6.17248 8.46293 6.14739 8.01165 6.24911C7.56037 6.35082 7.14839 6.57512 6.82405 6.89568L5.28326 8.39723C5.23527 8.44428 5.20305 8.50427 5.19082 8.56935C5.17859 8.63444 5.18692 8.70158 5.21471 8.762L5.79282 10.0101L5 12.102L7.84621 22.587C8.11524 23.5776 8.73409 24.4455 9.59516 25.0398L15.2241 28.7358C15.445 28.907 15.7196 29.0003 16.0025 29.0003C16.2855 29.0003 16.56 28.907 16.781 28.7358L22.4069 25.0344C23.2694 24.4421 23.8879 23.5733 24.1528 22.5817L26.4748 13.9806L27 12.0879Z" fill="url(#paint0_linear_2943_14736)"/>
<path d="M16.6427 19.4954C16.494 19.4308 16.3405 19.377 16.1836 19.3343H15.9069C15.7499 19.377 15.5965 19.4309 15.4477 19.4954L14.7516 19.7757L13.9654 20.1263L12.6852 20.7729C12.6382 20.787 12.5968 20.8146 12.5664 20.852C12.5359 20.8893 12.5178 20.9347 12.5144 20.9822C12.511 21.0297 12.5225 21.0771 12.5474 21.1182C12.5723 21.1592 12.6094 21.1921 12.6539 21.2123L13.7658 21.9687C14.001 22.1315 14.2286 22.3066 14.4487 22.4941L14.7617 22.7554L15.4169 23.3106L15.7138 23.5645C15.8056 23.6382 15.921 23.6785 16.0402 23.6785C16.1593 23.6785 16.2748 23.6382 16.3665 23.5645L17.6462 22.4815L18.3317 21.9555L19.4436 21.1845C19.4877 21.1642 19.5244 21.1313 19.5489 21.0904C19.5734 21.0494 19.5845 21.0023 19.5808 20.9551C19.5771 20.9079 19.5587 20.8629 19.5281 20.826C19.4975 20.7891 19.4561 20.7621 19.4093 20.7484L18.1311 20.1234L17.3403 19.7723L16.6427 19.4954ZM24.5256 12.5551L24.5659 12.4428C24.568 12.2929 24.5584 12.143 24.5372 11.9945C24.431 11.7282 24.2925 11.4751 24.1244 11.2406L23.4011 10.2122L22.886 9.5344L21.9168 8.36246C21.8282 8.24815 21.7322 8.13937 21.6295 8.03676H21.6093L21.1789 8.11391L19.0484 8.51139C18.8329 8.52101 18.6175 8.49051 18.4139 8.42154L17.244 8.05531L16.4068 7.83118C16.161 7.80627 15.9132 7.80627 15.6674 7.83118L14.8282 8.05775L13.6584 8.42594C13.4546 8.49443 13.2393 8.52492 13.0239 8.51579L10.8959 8.12514L10.4654 8.04799H10.4453C10.3421 8.15024 10.2462 8.25905 10.158 8.37369L9.19027 9.54563C9.01118 9.76537 8.84082 9.9913 8.6792 10.2234L7.95391 11.2518L7.61218 11.8041C7.54994 12.0162 7.51706 12.2354 7.5144 12.456L7.55473 12.5683C7.57192 12.6402 7.59397 12.711 7.62075 12.7802L8.19181 13.415L10.7235 16.0221C10.8077 16.117 10.864 16.232 10.8866 16.3552C10.9092 16.4784 10.8973 16.6051 10.852 16.7223L10.4271 17.6726C10.3332 17.924 10.3263 18.1983 10.4075 18.4539L10.4901 18.6746C10.6262 19.0331 10.8593 19.3495 11.165 19.5907L11.5627 19.9046C11.6662 19.9765 11.7868 20.0219 11.9132 20.0366C12.0396 20.0513 12.1679 20.0348 12.286 19.9886L13.7003 19.3328C13.9605 19.2079 14.2039 19.0524 14.425 18.8699L15.5571 17.8801C15.6025 17.8408 15.6393 17.7931 15.6653 17.7397C15.6912 17.6864 15.7059 17.6285 15.7083 17.5695C15.7103 17.5107 15.7001 17.4521 15.6785 17.3971C15.6569 17.3421 15.6242 17.2918 15.5823 17.2492L13.0239 15.5816C12.9271 15.5152 12.8581 15.4172 12.8295 15.3057C12.8009 15.1941 12.8146 15.0763 12.8681 14.9737L13.859 13.1694C13.9156 13.059 13.9491 12.939 13.9578 12.8161C13.9664 12.6932 13.95 12.5698 13.9094 12.453C13.7861 12.2302 13.5867 12.0557 13.3454 11.9593L10.2386 10.8265C10.0149 10.7483 10.0269 10.6507 10.2643 10.637L12.0889 10.4617C12.375 10.444 12.6623 10.4687 12.9407 10.5349L14.5284 10.9647C14.6411 10.9975 14.7376 11.0689 14.8001 11.1655C14.8626 11.2622 14.8867 11.3775 14.8681 11.4901L14.2446 14.7915C14.2027 14.9743 14.1923 15.1626 14.2138 15.3487C14.239 15.4273 14.4522 15.5245 14.6856 15.5797L15.6528 15.775C15.9337 15.8253 16.2217 15.8253 16.5026 15.775L17.3725 15.5797C17.6064 15.5308 17.8171 15.422 17.8438 15.3428C17.8648 15.1569 17.8541 14.9688 17.8121 14.7862L17.1845 11.4857C17.1661 11.3731 17.1903 11.2579 17.2528 11.1613C17.3152 11.0647 17.4117 10.9933 17.5243 10.9603L19.1119 10.5291C19.3903 10.4628 19.6776 10.4381 19.9637 10.4558L21.7883 10.6204C22.0272 10.6419 22.0403 10.7278 21.8155 10.8099L18.7092 11.9491C18.4677 12.0448 18.2686 12.2197 18.1467 12.4433C18.0653 12.6791 18.0834 12.9366 18.1971 13.1596L19.1895 14.9639C19.2432 15.0666 19.2571 15.1846 19.2286 15.2963C19.2001 15.4081 19.1312 15.5062 19.0343 15.5728L16.4809 17.2443C16.4395 17.2862 16.4069 17.3356 16.3853 17.3897C16.3636 17.4439 16.3533 17.5016 16.3548 17.5596C16.3563 17.6176 16.3696 17.6748 16.394 17.7278C16.4185 17.7808 16.4535 17.8286 16.4971 17.8684L16.5046 17.8752L17.6382 18.865C17.8592 19.0468 18.102 19.2021 18.3614 19.3275L19.7757 19.9794C19.8938 20.0256 20.0221 20.042 20.1486 20.027C20.275 20.012 20.3954 19.966 20.4985 19.8934L20.8967 19.5784C21.2026 19.3368 21.4356 19.0196 21.571 18.6604L21.6542 18.4397C21.7352 18.1841 21.7283 17.9099 21.6345 17.6584L21.2182 16.7067C21.1734 16.5894 21.1616 16.4626 21.1842 16.3394C21.2068 16.2162 21.2629 16.1011 21.3467 16.006L23.8784 13.396L24.448 12.7612C24.4783 12.6938 24.5043 12.6246 24.5256 12.5541V12.5551Z" fill="white"/>
</g>
</g>
<defs>
<filter id="filter0_d_2943_14736" x="-2" y="-1" width="36" height="36" filterUnits="userSpaceOnUse" color-interpolation-filters="sRGB">
<feFlood flood-opacity="0" result="BackgroundImageFix"/>
<feColorMatrix in="SourceAlpha" type="matrix" values="0 0 0 0 0 0 0 0 0 0 0 0 0 0 0 0 0 0 127 0" result="hardAlpha"/>
<feOffset dy="1"/>
<feGaussianBlur stdDeviation="1"/>
<feColorMatrix type="matrix" values="0 0 0 0 0.0627451 0 0 0 0 0.0941176 0 0 0 0 0.156863 0 0 0 0.05 0"/>
<feBlend mode="normal" in2="BackgroundImageFix" result="effect1_dropShadow_2943_14736"/>
<feBlend mode="normal" in="SourceGraphic" in2="effect1_dropShadow_2943_14736" result="shape"/>
</filter>
<linearGradient id="paint0_linear_2943_14736" x1="4.99851" y1="16.4677" x2="27.0179" y2="16.4677" gradientUnits="userSpaceOnUse">
<stop stop-color="#F1562B"/>
<stop offset="0.3" stop-color="#F1542B"/>
<stop offset="0.41" stop-color="#F04D2A"/>
<stop offset="0.49" stop-color="#EF4229"/>
<stop offset="0.5" stop-color="#EF4029"/>
<stop offset="0.56" stop-color="#E83E28"/>
<stop offset="0.67" stop-color="#E13C26"/>
<stop offset="1" stop-color="#DF3C26"/>
</linearGradient>
<clipPath id="clip0_2943_14736">
<rect width="22" height="25" fill="white" transform="translate(5 4)"/>
</clipPath>
</defs>
</svg>
