<svg width="16" height="16" viewBox="0 0 16 16" fill="none" xmlns="http://www.w3.org/2000/svg">
<rect width="16" height="16" rx="3.2" fill="#0A54E4"/>
<path d="M7.84525 12.9536C7.16259 12.9536 6.53112 12.8299 5.95085 12.5824C5.37912 12.335 4.87565 11.9894 4.44045 11.5456C4.01379 11.1019 3.68099 10.5814 3.44205 9.98405C3.20312 9.38672 3.08365 8.73392 3.08365 8.02565C3.08365 7.31738 3.19885 6.66458 3.42925 6.06725C3.66819 5.46138 4.00099 4.94085 4.42765 4.50565C4.86285 4.06191 5.37059 3.72058 5.95085 3.48165C6.53112 3.23418 7.16259 3.11045 7.84525 3.11045C8.52792 3.11045 9.13805 3.22565 9.67565 3.45605C10.2218 3.68645 10.6826 3.99365 11.0581 4.37765C11.4335 4.75311 11.7023 5.16698 11.8645 5.61925L10.3029 6.34885C10.1237 5.87098 9.82072 5.47845 9.39405 5.17125C8.96739 4.85552 8.45112 4.69765 7.84525 4.69765C7.24792 4.69765 6.71885 4.83845 6.25805 5.12005C5.80579 5.40165 5.45165 5.78992 5.19565 6.28485C4.94819 6.77978 4.82445 7.36005 4.82445 8.02565C4.82445 8.69125 4.94819 9.27578 5.19565 9.77925C5.45165 10.2742 5.80579 10.6624 6.25805 10.944C6.71885 11.2256 7.24792 11.3664 7.84525 11.3664C8.45112 11.3664 8.96739 11.2128 9.39405 10.9056C9.82072 10.5899 10.1237 10.1931 10.3029 9.71525L11.8645 10.4448C11.7023 10.8971 11.4335 11.3152 11.0581 11.6992C10.6826 12.0747 10.2218 12.3776 9.67565 12.608C9.13805 12.8384 8.52792 12.9536 7.84525 12.9536Z" fill="white"/>
</svg>
