<svg width="32" height="32" viewBox="0 0 32 32" fill="none" xmlns="http://www.w3.org/2000/svg">
<path fill-rule="evenodd" clip-rule="evenodd" d="M5.716 29.2178L2.27664 24.9331C1.44913 23.9023 1 22.6346 1 21.3299V5.81499C1 3.86064 2.56359 2.23897 4.58071 2.10125L20.5321 1.01218C21.691 0.933062 22.8428 1.24109 23.7948 1.8847L29.3992 5.67391C30.4025 6.35219 31 7.46099 31 8.64426V26.2832C31 28.1958 29.4626 29.7793 27.4876 29.9009L9.78333 30.9907C8.20733 31.0877 6.68399 30.4237 5.716 29.2178Z" fill="white"/>
<path d="M11.2481 13.5782V13.3751C11.2481 12.8602 11.6605 12.4332 12.192 12.3977L16.0633 12.1392L21.417 20.023V13.1037L20.039 12.92V12.8235C20.039 12.3025 20.4608 11.8727 20.9991 11.8451L24.5216 11.6647V12.1716C24.5216 12.4096 24.3446 12.6131 24.1021 12.6541L23.2544 12.7975V24.0032L22.1906 24.3691C21.3018 24.6747 20.3124 24.3475 19.8036 23.5798L14.6061 15.7367V23.2225L16.2058 23.5286L16.1836 23.677C16.1137 24.1418 15.7124 24.4934 15.227 24.515L11.2481 24.6921C11.1955 24.1923 11.5701 23.7451 12.0869 23.6908L12.6103 23.6358V13.6548L11.2481 13.5782Z" fill="black"/>
<path fill-rule="evenodd" clip-rule="evenodd" d="M20.6749 2.96629L4.72347 4.05536C3.76799 4.1206 3.02734 4.88876 3.02734 5.8145V21.3294C3.02734 22.1992 3.32676 23.0443 3.87843 23.7316L7.3178 28.0162C7.87388 28.709 8.74899 29.0904 9.65435 29.0347L27.3586 27.9449C28.266 27.889 28.9724 27.1614 28.9724 26.2827V8.64377C28.9724 8.1001 28.6979 7.59066 28.2369 7.27902L22.6325 3.48981C22.0613 3.10364 21.3702 2.91882 20.6749 2.96629ZM5.51447 6.05651C5.29261 5.89225 5.3982 5.55006 5.6769 5.53007L20.7822 4.44662C21.2635 4.4121 21.7417 4.54463 22.1309 4.82039L25.1617 6.96764C25.2767 7.04916 25.2228 7.22514 25.0803 7.23289L9.08387 8.10288C8.59977 8.1292 8.12193 7.98698 7.73701 7.70201L5.51447 6.05651ZM8.33357 10.8302C8.33357 10.3105 8.75341 9.88128 9.29027 9.85204L26.203 8.93096C26.7263 8.90247 27.1667 9.30485 27.1667 9.81133V25.0848C27.1667 25.6035 26.7484 26.0323 26.2126 26.0628L9.40688 27.019C8.8246 27.0522 8.33357 26.6047 8.33357 26.041V10.8302Z" fill="black"/>
</svg>
