<svg width="32" height="32" viewBox="0 0 32 32" fill="none" xmlns="http://www.w3.org/2000/svg">
<path d="M26.5002 14.9996C27.8808 14.9996 29 13.8804 29 12.4998V12.4998C29 11.1192 27.8807 10 26.5001 10V10C25.1194 10 24 11.1193 24 12.5V14.9996H26.5002ZM19.5 14.9996C20.8807 14.9996 22 13.8803 22 12.4996V5.5C22 4.11929 20.8807 3 19.5 3V3C18.1193 3 17 4.11929 17 5.5V12.4996C17 13.8803 18.1193 14.9996 19.5 14.9996V14.9996Z" fill="#2EB67D"/>
<path d="M5.49979 17.0004C4.11919 17.0004 3 18.1196 3 19.5002V19.5002C3 20.8808 4.1193 22 5.49989 22V22C6.88061 22 8 20.8807 8 19.5V17.0004H5.49979ZM12.5 17.0004C11.1193 17.0004 10 18.1197 10 19.5004V26.5C10 27.8807 11.1193 29 12.5 29V29C13.8807 29 15 27.8807 15 26.5V19.5004C15 18.1197 13.8807 17.0004 12.5 17.0004V17.0004Z" fill="#E01E5A"/>
<path d="M17.0002 26.5002C17.0002 27.8808 18.1194 29 19.5 29V29C20.8806 29 21.9998 27.8807 21.9998 26.5001V26.5001C21.9998 25.1194 20.8805 24 19.4998 24L17.0002 24L17.0002 26.5002ZM17.0002 19.5C17.0002 20.8807 18.1195 22 19.5002 22L26.4998 22C27.8805 22 28.9998 20.8807 28.9998 19.5V19.5C28.9998 18.1193 27.8805 17 26.4998 17L19.5002 17C18.1195 17 17.0002 18.1193 17.0002 19.5V19.5Z" fill="#ECB22E"/>
<path d="M14.9998 5.49979C14.9998 4.11919 13.8806 3 12.5 3V3C11.1194 3 10.0002 4.1193 10.0002 5.49989V5.49989C10.0002 6.88061 11.1195 8 12.5002 8L14.9998 8L14.9998 5.49979ZM14.9998 12.5C14.9998 11.1193 13.8805 10 12.4998 10L5.50024 10C4.11953 10 3.00024 11.1193 3.00024 12.5V12.5C3.00024 13.8807 4.11953 15 5.50024 15L12.4998 15C13.8805 15 14.9998 13.8807 14.9998 12.5V12.5Z" fill="#36C5F0"/>
</svg>
