<svg width="32" height="32" viewBox="0 0 32 32" fill="none" xmlns="http://www.w3.org/2000/svg">
<path d="M21.0018 3.11679C21.0018 2.23783 20.0177 2.23782 19.5803 2.34769C20.1927 1.86426 20.9107 1.98147 21.1659 2.12796L27.0792 5.02747C27.6427 5.30375 28.0001 5.8786 28.0001 6.50857V25.5831C28.0001 26.2215 27.6331 26.8025 27.0583 27.0743L21.4939 29.7054C21.1112 29.8701 20.2801 30.2767 19.5803 29.7053C20.4551 29.8702 20.9289 29.2476 21.0018 28.8264V3.11679Z" fill="url(#paint0_linear_2943_14742)"/>
<path d="M19.6512 2.3319C20.1154 2.24017 21.0018 2.28271 21.0018 3.11685V9.68254L3.07359 23.2453C2.76022 23.4824 2.3192 23.443 2.05229 23.1542L0.204532 21.1548C-0.0849358 20.8416 -0.0646824 20.3513 0.249624 20.0633L19.5802 2.34775L19.6512 2.3319Z" fill="url(#paint1_linear_2943_14742)"/>
<path d="M21.0018 22.3708L3.07359 8.80801C2.76022 8.57094 2.3192 8.61028 2.05229 8.8991L0.204532 10.8985C-0.0849358 11.2117 -0.0646824 11.702 0.249624 11.9901L19.5802 29.7056V29.7056C20.455 29.8704 20.9289 29.2478 21.0018 28.8266V22.3708Z" fill="url(#paint2_linear_2943_14742)"/>
<defs>
<linearGradient id="paint0_linear_2943_14742" x1="23.7902" y1="2" x2="23.7902" y2="30" gradientUnits="userSpaceOnUse">
<stop stop-color="#32B5F1"/>
<stop offset="1" stop-color="#2B9FED"/>
</linearGradient>
<linearGradient id="paint1_linear_2943_14742" x1="21.0018" y1="5.53398" x2="1.0217" y2="22.3051" gradientUnits="userSpaceOnUse">
<stop stop-color="#0F6FB3"/>
<stop offset="0.270551" stop-color="#1279B7"/>
<stop offset="0.421376" stop-color="#1176B5"/>
<stop offset="0.618197" stop-color="#0E69AC"/>
<stop offset="0.855344" stop-color="#0F70AF"/>
<stop offset="1" stop-color="#0F6DAD"/>
</linearGradient>
<linearGradient id="paint2_linear_2943_14742" x1="1.15522" y1="9.98389" x2="21.0791" y2="26.4808" gradientUnits="userSpaceOnUse">
<stop stop-color="#1791D2"/>
<stop offset="1" stop-color="#1173C5"/>
</linearGradient>
</defs>
</svg>
