<svg width="32" height="32" viewBox="0 0 32 32" fill="none" xmlns="http://www.w3.org/2000/svg">
<path fill-rule="evenodd" clip-rule="evenodd" d="M16 30C23.732 30 30 23.732 30 16C30 8.26801 23.732 2 16 2C8.26801 2 2 8.26801 2 16C2 23.732 8.26801 30 16 30Z" fill="white"/>
<path fill-rule="evenodd" clip-rule="evenodd" d="M27 10L20.2992 23H14.0052L16.8095 17.6122H16.6837C14.3702 20.5927 10.9183 22.5547 6 23V17.6868C6 17.6868 9.14638 17.5024 10.996 15.5725H6V10.0001H11.615V14.5833L11.741 14.5828L14.0356 10.0001H18.282V14.5542L18.408 14.554L20.7886 10H27Z" fill="#146EF5"/>
</svg>
