<?xml version="1.0" standalone="no"?>
<!DOCTYPE svg PUBLIC "-//W3C//DTD SVG 1.1//EN" "http://www.w3.org/Graphics/SVG/1.1/DTD/svg11.dtd">
<svg width="100%" height="100%" viewBox="0 0 799 1660" version="1.1" xmlns="http://www.w3.org/2000/svg" xmlns:xlink="http://www.w3.org/1999/xlink" xml:space="preserve" style="fill-rule:evenodd;clip-rule:evenodd;stroke-linecap:round;stroke-linejoin:round;stroke-miterlimit:1.41421;">
    <path d="M788.837,426.266L788.837,1551.49C788.837,1611.57 740.131,1660.27 680.05,1660.27L119.573,1660.27C59.4917,1660.27 10.7863,1611.57 10.7863,1551.49L10.7863,632.783L3.40299,632.783C1.52357,632.783 5.68434e-14,631.259 5.68434e-14,629.38L0,463.876C0,461.997 1.52357,460.473 3.40299,460.473L10.7863,460.473L10.7863,426.266L3.40299,426.266C1.52357,426.266 5.68434e-14,424.742 5.68434e-14,422.863L0,257.359C0,255.48 1.52357,253.956 3.40299,253.956L10.7863,253.956L10.7863,108.787C10.7863,48.7055 59.4917,0 119.573,0L680.05,0C740.131,0 788.837,48.7055 788.837,108.787L788.837,253.956L796.22,253.956C798.099,253.956 799.623,255.48 799.623,257.359L799.623,422.863C799.623,424.742 798.099,426.266 796.22,426.266L788.837,426.266Z" style="fill:rgb(34,34,34);"/>
    <circle id="button" cx="406.221" cy="1543.31" r="68.1679" style="fill:none;stroke-width:4.17px;stroke:white;stroke-opacity:0.1;"/>
    <rect id="screen" x="64.4799" y="182.965" width="670.663" height="1246.26" style="fill:white;fill-opacity:0.1;"/>
    <path id="speaker" d="M506.177,93.1969C506.177,84.3558 499.01,77.1887 490.169,77.1887L372.245,77.1887C363.404,77.1887 356.236,84.3558 356.236,93.1969L356.236,93.2865C356.236,102.128 363.404,109.295 372.245,109.295L490.169,109.295C499.01,109.295 506.177,102.128 506.177,93.2865L506.177,93.1969Z" style="fill:none;stroke-width:4.17px;stroke:white;stroke-opacity:0.1;"/>
    <circle id="camera" cx="309.584" cy="93.2417" r="16.138" style="fill:none;stroke-width:4.17px;stroke:white;stroke-opacity:0.1;"/>
</svg>
