<svg width="94" height="24" viewBox="0 0 94 24" fill="none" xmlns="http://www.w3.org/2000/svg">
<path d="M26.5042 0.0800057V3.01334H33.5975V23.8133H36.5842V3.01334H43.6775V0.0800057H26.5042Z" fill="#2D2E2E"/>
<path d="M20.3709 10.3733H9.91754L10.3442 9.46668C10.3442 9.46668 13.0642 3.06667 17.7042 3.06667H20.3175L20.3709 10.3733ZM17.7575 0.0800057C11.1975 0.0800057 7.89087 7.70667 7.62421 8.29334C7.62421 8.34667 1.91754 20.6133 0.477539 23.76H3.7842L8.5842 13.4133H20.4242C20.4242 17.3067 20.4242 21.36 20.4242 23.76H23.4109V0.0266724L17.7575 0.0800057Z" fill="#2D2E2E"/>
<path d="M73.3309 2.85334H75.9442C80.6375 2.85334 83.3042 9.25334 83.3042 9.25334L83.7309 10.16H73.2775L73.3309 2.85334ZM70.4509 0.0800057V23.8133H73.4375V13.4133H85.2775L90.0775 23.76H93.3842C91.9442 20.6133 86.2375 8.29334 86.2375 8.29334C85.9709 7.65334 82.7175 0.0800057 76.1042 0.0800057H70.4509Z" fill="#2D2E2E"/>
<path d="M63.4642 9.84001H51.4642C50.5575 9.84001 49.8109 10.5333 49.8109 11.44C49.8109 12.3467 50.5575 13.04 51.4642 13.04C51.4642 13.04 51.4642 13.04 51.5175 13.04H63.4109C63.4109 13.04 63.4109 13.04 63.4642 13.04C64.3709 13.04 65.1175 12.3467 65.1175 11.44C65.1175 10.5867 64.3709 9.84001 63.4642 9.84001Z" fill="#2D2E2E"/>
<path d="M43.5709 12.0267C43.5709 5.41334 48.9575 0.0800057 55.6242 0.0800057C58.9309 0.0800057 62.2375 1.62667 64.5309 4.08001C64.7975 4.34667 64.9042 4.72001 64.9042 5.09334C64.9042 5.94667 64.2109 6.58667 63.3575 6.58667C62.9309 6.58667 62.5042 6.42667 62.2375 6.10667C60.4775 4.24001 58.0242 3.12001 55.6242 3.12001C50.6642 3.12001 46.6109 7.12001 46.6109 12.0267C46.6109 16.9333 50.6642 20.9333 55.6242 20.9333C58.0242 20.9333 60.4775 19.8133 62.2375 17.9467C62.5042 17.6267 62.9309 17.4667 63.3575 17.4667C64.2109 17.4667 64.9042 18.16 64.9042 18.96C64.9042 19.3333 64.7442 19.7067 64.5309 19.9733C62.2375 22.48 58.9309 23.9733 55.6242 23.9733C48.9575 23.9733 43.5709 18.64 43.5709 12.0267Z" fill="#2D2E2E"/>
</svg>
