<svg width="87" height="30" viewBox="0 0 87 30" fill="none" xmlns="http://www.w3.org/2000/svg">
<path fill-rule="evenodd" clip-rule="evenodd" d="M71.8975 0.000114851C68.4489 -0.0054316 65.1052 1.18615 62.4373 3.37144C59.7514 1.18593 56.3932 -0.00497216 52.9305 0.000114851C49.4808 -0.0134734 46.135 1.17906 43.4716 3.37144C40.8727 1.26988 37.5885 0.000114851 34.0101 0.000114851C30.5619 -0.00513919 27.2188 1.18642 24.5512 3.37144C21.9536 1.26988 18.6694 0.000114851 15.0898 0.000114851C6.75932 0.000114851 0.0444336 6.69354 0.0444336 15.0001C0.0444336 23.3053 6.75932 30 15.0911 30C18.6694 30 22.0016 28.729 24.5512 26.6287C27.1488 28.729 30.4331 29.9987 34.0101 29.9987C37.5885 29.9987 40.9207 28.729 43.4703 26.6287C46.1567 28.814 49.5154 30.0045 52.9784 29.9987C56.606 29.9987 59.889 28.729 62.4866 26.6287C65.0842 28.729 68.3684 29.9987 71.9467 29.9987C80.2785 29.9987 86.9934 23.3066 86.9934 15.0001C86.9442 6.74277 80.2293 0.000114851 71.8975 0.000114851ZM62.4373 21.7427C61.0288 19.7772 60.2746 17.4182 60.2815 15.0001C60.2815 12.5085 61.0653 10.1633 62.4373 8.2574C63.8463 10.2228 64.601 12.5818 64.5944 15.0001C64.5944 17.5409 63.7614 19.8368 62.4373 21.7427ZM43.4703 21.7427C42.0613 19.7773 41.3066 17.4183 41.3132 15.0001C41.3132 12.5085 42.097 10.1633 43.4703 8.2574C44.8788 10.223 45.6331 12.5819 45.6261 15.0001C45.6261 17.5409 44.7931 19.8368 43.4703 21.7427ZM24.502 21.7427C23.093 19.7773 22.3383 17.4183 22.3449 15.0001C22.3449 12.5085 23.13 10.1633 24.502 8.2574C25.9106 10.223 26.6648 12.5819 26.6578 15.0001C26.6578 17.5409 25.8248 19.8368 24.502 21.7427ZM3.32867 15.0001C3.32867 8.59946 8.52387 3.37144 14.9939 3.37144C17.5619 3.36365 20.0604 4.2055 22.1001 5.76583C20.0906 8.30663 18.9143 11.4823 18.9143 15.0001C18.9143 18.4686 20.0906 21.6935 22.1001 24.2343C20.1399 25.7489 17.6887 26.6287 14.9939 26.6287C8.5731 26.6287 3.32867 21.4499 3.32867 15.0001ZM26.8535 24.2343C28.8629 21.6935 30.0393 18.5178 30.0393 15.0001C30.0393 11.5303 28.8629 8.30663 26.8535 5.76583C28.8137 4.25119 31.2649 3.37144 33.9597 3.37144C36.6557 3.37144 39.1069 4.25119 41.0658 5.76583C39.0577 8.30663 37.8813 11.4823 37.8813 15.0001C37.8813 18.4686 39.0577 21.6935 41.0671 24.2343C39.1069 25.7489 36.6557 26.6287 33.9609 26.6287C31.2649 26.6287 28.8137 25.7489 26.8535 24.2343ZM45.8218 24.2343C47.8312 21.6935 49.0076 18.5178 49.0076 15.0001C49.0076 11.5303 47.8312 8.30663 45.8218 5.76583C47.782 4.25119 50.2319 3.37144 52.9279 3.37144C55.496 3.36365 57.9945 4.2055 60.0341 5.76583C58.026 8.30663 56.8496 11.4823 56.8496 15.0001C56.8496 18.4686 58.026 21.6935 60.0354 24.2343C58.0739 25.7489 55.624 26.6287 52.9292 26.6287C50.3608 26.6367 47.8618 25.7949 45.8218 24.2343ZM71.8962 26.6287C69.3282 26.6365 66.8297 25.7946 64.7901 24.2343C66.7982 21.6935 67.9746 18.5178 67.9746 15.0001C67.9746 11.5303 66.7982 8.30663 64.7888 5.76583C66.7503 4.25119 69.2002 3.37144 71.895 3.37144C78.317 3.37144 83.5615 8.55023 83.5615 15.0001C83.5615 21.4499 78.317 26.6287 71.8962 26.6287Z" fill="#2D2E2E"/>
</svg>
