<svg width="75" height="26" viewBox="0 0 75 26" fill="none" xmlns="http://www.w3.org/2000/svg">
<path d="M7.72414 5.0233C7.72414 4.59341 7.59677 4.2909 7.34202 4.13169C7.08728 3.97247 6.72108 3.87694 6.24343 3.87694C5.76578 3.87694 5.43143 3.95655 5.16076 4.13169C4.89009 4.30682 4.76272 4.59341 4.76272 5.0233V20.9608C4.76272 21.3907 4.89009 21.6932 5.16076 21.8524C5.41551 22.0276 5.7817 22.1072 6.24343 22.1072C6.70516 22.1072 7.08728 22.0276 7.34202 21.8524C7.59677 21.6932 7.72414 21.3907 7.72414 20.9608V15.5316H12.1344V21.741C12.1344 22.4097 12.0548 23.0147 11.8797 23.5401C11.7045 24.0655 11.418 24.5114 10.9881 24.8776C10.5582 25.2437 9.95317 25.5144 9.18893 25.7055C8.42469 25.8965 7.43755 25.9921 6.24343 25.9921C5.04931 25.9921 4.06217 25.8965 3.31385 25.7055C2.56554 25.5144 1.96052 25.2437 1.53063 24.8776C1.10075 24.5114 0.798239 24.0815 0.639023 23.5401C0.463885 23.0147 0.384277 22.4097 0.384277 21.741V4.22722C0.384277 3.55851 0.463885 2.95349 0.639023 2.42807C0.814161 1.90266 1.10075 1.45685 1.53063 1.10658C1.96052 0.740381 2.54962 0.469714 3.31385 0.278655C4.06217 0.0875951 5.04931 -0.00793457 6.24343 -0.00793457C7.43755 -0.00793457 8.42469 0.0875951 9.18893 0.278655C9.95317 0.469714 10.5582 0.740381 10.9881 1.10658C11.418 1.47278 11.7205 1.90266 11.8797 2.42807C12.0548 2.95349 12.1344 3.55851 12.1344 4.22722V10.1819H7.72414V5.0233Z" fill="#2D2E2E"/>
<path d="M14.2202 0.421949H21.6237C22.2765 0.421949 22.8656 0.485635 23.4069 0.613008C23.9483 0.740381 24.3941 0.963284 24.7762 1.26579C25.1583 1.56831 25.4449 1.96635 25.6519 2.49176C25.8748 3.00125 25.9703 3.65404 25.9703 4.45012V9.97492C25.9703 10.6755 25.7952 11.185 25.429 11.5352C25.0628 11.8855 24.7284 12.1243 24.4259 12.2676V12.5224C24.7603 12.6497 25.1265 12.8567 25.5086 13.1911C25.8907 13.5095 26.0818 14.0031 26.0818 14.64V21.5022C26.0818 22.2664 25.9703 22.9192 25.7633 23.4446C25.5564 23.97 25.2538 24.384 24.8717 24.7024C24.4896 25.0208 24.0279 25.2278 23.4706 25.3711C22.9134 25.4985 22.3083 25.5622 21.6396 25.5622H14.2361V0.421949H14.2202ZM20.7958 10.5799C20.9868 10.5799 21.162 10.5003 21.3212 10.357C21.4804 10.2137 21.56 9.97492 21.56 9.64056V5.19843C21.56 4.86408 21.4645 4.62526 21.2575 4.49788C21.0505 4.37051 20.8436 4.30682 20.6366 4.30682H18.6623V10.5959H20.8117L20.7958 10.5799ZM20.6525 21.6773C20.9072 21.6773 21.1461 21.6136 21.353 21.4862C21.56 21.3589 21.6556 21.1201 21.6556 20.7857V15.1813C21.6556 14.9265 21.56 14.7355 21.369 14.624C21.1779 14.5126 20.9868 14.4648 20.7958 14.4648H18.6464V21.6773H20.6525Z" fill="#2D2E2E"/>
<path d="M35.4596 4.73671C35.4596 4.16353 34.966 3.87694 33.9948 3.87694C32.9599 3.87694 32.4504 4.16353 32.4504 4.73671V7.22048C32.4504 7.63444 32.4982 7.93695 32.5778 8.15985C32.6574 8.38276 32.7688 8.55789 32.9121 8.70119L38.3733 13.7006C38.8509 14.1145 39.233 14.5763 39.5196 15.1017C39.8062 15.6271 39.9495 16.3754 39.9495 17.3307V21.5977C39.9495 23.1739 39.4718 24.3044 38.5325 24.989C37.5931 25.6736 36.0805 26.008 33.9948 26.008C32.9121 26.008 31.9887 25.9443 31.2085 25.7851C30.4284 25.6418 29.8074 25.403 29.3298 25.0527C28.8521 24.7024 28.5019 24.2566 28.2789 23.6834C28.056 23.1262 27.9446 22.4256 27.9446 21.5818V15.8022H32.323V21.0882C32.323 21.4703 32.4663 21.741 32.7688 21.9002C33.0714 22.0594 33.4853 22.139 34.0107 22.139C34.4725 22.139 34.8387 22.0594 35.1252 21.9002C35.4118 21.741 35.5551 21.4703 35.5551 21.0882V17.7447C35.5551 17.4103 35.5233 17.1396 35.4437 16.9327C35.38 16.7257 35.2367 16.5346 35.0456 16.3754L29.9507 11.9492C29.3457 11.4238 28.884 10.8506 28.5496 10.2297C28.2153 9.60872 28.0401 8.73303 28.0401 7.6026V4.40235C28.0401 2.79427 28.5019 1.66384 29.4412 0.995127C30.3806 0.326419 31.8932 -0.00793457 34.0107 -0.00793457C36.1283 -0.00793457 37.7523 0.326419 38.6121 1.01105C39.4718 1.69568 39.9017 2.77835 39.9017 4.25906V9.06739H35.4755V4.73671H35.4596Z" fill="#2D2E2E"/>
<path d="M51.859 5.16656C52.9575 5.91488 54.0721 6.63135 55.2343 7.31598V7.17268L53.3874 2.88977C53.0371 2.09369 52.7028 1.26576 52.3525 0.421918H48.8498V3.66993C49.009 3.54255 49.216 3.46295 49.4229 3.4311C50.6967 3.30373 50.8559 4.76852 51.859 5.16656Z" fill="#2D2E2E"/>
<path d="M59.6765 19.3527L58.2754 15.3564L56.4921 10.8028L56.11 9.86344L55.2025 9.29026L51.1106 6.93386C50.5056 6.47213 49.614 6.36068 49.1523 5.77158C49.0727 5.62829 48.9771 5.48499 48.8816 5.3417V25.594H61.7144L61.6667 25.4189L59.7083 19.3686" fill="#2D2E2E"/>
<path d="M56.6514 7.85731C56.8583 8.733 57.7818 8.93998 58.3709 9.44947C60.7114 11.0735 63.1155 12.793 65.4082 14.5285C65.4082 14.5285 65.456 14.5603 65.5356 14.6081V14.5603C65.5356 14.5603 65.5356 12.5542 65.5993 11.2168C65.5038 8.58971 65.2968 5.00734 64.8351 2.74647C64.5644 2.10961 64.2619 1.48867 64.3574 0.851802C64.3574 0.708507 64.3574 0.565213 64.3097 0.421918H54.1676C54.279 0.756272 54.3905 1.0747 54.5019 1.40906C55.2184 3.54255 55.8871 5.72382 56.6514 7.84139" fill="#2D2E2E"/>
<path d="M66.6342 1.32945C66.9526 2.10961 66.7138 2.88977 66.7775 3.68585C66.873 5.9308 66.9686 8.19167 66.6183 10.4366C66.4909 11.9492 66.3635 13.4617 66.3476 14.9743C66.3476 14.9743 66.3476 15.0698 66.3476 15.229C66.4431 15.3086 66.5228 15.3723 66.5387 15.4201L66.6024 15.3723L67.7646 11.8059L69.2135 6.98162C69.6434 5.16656 70.344 3.33557 70.4076 1.50459C70.2484 1.18616 70.0892 0.804037 70.0892 0.43784H66.6342C66.6501 0.74035 66.6501 1.04286 66.6024 1.34537" fill="#2D2E2E"/>
<path d="M65.663 18.0312V15.9773C65.5515 15.9137 65.456 15.834 65.3923 15.7544C63.2907 14.1941 60.998 12.8089 58.7849 11.4238C58.6256 11.4556 58.6575 11.6626 58.6256 11.774C59.2784 15.9137 60.8228 20.0374 62.0806 24.177C62.2398 24.6387 62.3513 25.1163 62.4946 25.5781H63.1951C63.9116 23.4446 64.5962 21.3588 65.2968 19.1935C65.4242 18.8114 65.5356 18.4293 65.6471 18.0312" fill="#2D2E2E"/>
<path d="M72.7163 0.421918C72.7163 0.421918 72.7003 0.501526 72.6844 0.549291C72.2386 2.2529 71.7451 3.9406 70.9808 5.62829C70.4713 6.77464 70.0892 8.01653 69.723 9.21065C69.0543 10.2137 68.6563 11.3919 68.2104 12.5223L67.0163 15.7544C67.287 16.0251 67.6532 16.2162 67.9079 16.5187C69.8822 18.0471 71.8406 19.6234 73.6716 21.3111C73.783 21.4544 73.8945 21.5977 74.0218 21.725V0.421918H72.7322" fill="#2D2E2E"/>
<path d="M65.6789 20.117L65.1376 21.5021C64.6759 22.8714 64.246 24.2247 63.832 25.5781H65.4879L65.6789 20.1806V20.117Z" fill="#2D2E2E"/>
<path d="M68.099 17.665C67.7063 17.3891 67.4674 17.2192 67.3825 17.1555C67.3825 17.1555 67.3825 17.1555 67.3507 17.1237C67.3029 17.0919 67.2392 17.06 67.1915 17.0282H67.1596C67.1119 16.9963 67.0482 16.9486 66.9845 16.9008C66.9526 16.9326 66.9526 17.0759 66.9208 17.1237C66.8412 17.3466 66.6979 17.5217 66.6979 17.5217C66.6183 17.7606 66.5387 17.9198 66.475 18.079C66.475 18.3178 66.475 18.5726 66.475 18.8114C66.475 20.3399 66.2839 22.9669 66.3317 23.158C66.3317 23.158 66.2839 24.6546 66.2362 25.5462H73.99V21.7569H73.783C71.8724 20.3876 70.0096 19.0024 68.0831 17.6491" fill="#2D2E2E"/>
</svg>
