<svg width="126" height="28" viewBox="0 0 126 28" fill="none" xmlns="http://www.w3.org/2000/svg">
<path d="M14.5391 0C16.8309 0 18.9732 0.548043 20.8665 1.49466H8.21167C10.1049 0.548043 12.2473 0 14.5391 0Z" fill="#2D2E2E"/>
<path d="M23.2081 3.03914H5.82019C5.22233 3.48754 4.67429 3.98576 4.17607 4.53381H14.3398C14.5391 4.53381 14.7383 4.48399 14.9376 4.43417L15.685 4.13523C17.7775 3.28825 19.9198 3.28825 22.0124 4.13523L22.7597 4.43416C22.959 4.53381 23.1583 4.53381 23.3576 4.53381H24.902C24.354 3.98576 23.806 3.48754 23.2081 3.03914Z" fill="#2D2E2E"/>
<path d="M11.8985 7.57295H2.08356C2.33267 7.07473 2.6316 6.57651 2.98035 6.07829H12.7953C13.0444 6.07829 13.2935 6.07829 13.5426 6.12811L15.1369 6.3274C17.628 6.62633 20.1191 6.62633 22.6102 6.3274L24.2046 6.12811C24.4537 6.07829 24.7028 6.07829 24.9519 6.07829H26.0978C26.1306 6.12749 26.164 6.1773 26.1978 6.2277C26.4721 6.63663 26.7728 7.08505 26.9946 7.57295H25.749C25.5497 7.57295 25.4003 7.57295 25.2508 7.52313L23.7562 7.27402C20.5177 6.7758 17.08 6.7758 13.8914 7.27402L12.3967 7.52313C12.1974 7.57295 12.048 7.57295 11.8985 7.57295Z" fill="#2D2E2E"/>
<path d="M28.0907 10.6121C28.0408 10.446 27.991 10.2744 27.9412 10.1028C27.8416 9.75962 27.7419 9.41636 27.6423 9.11744H26.2971C26.048 9.11744 25.7988 9.11744 25.5497 9.16727L24.2544 9.31673C20.717 9.76513 16.7811 9.76513 13.2437 9.31673L11.9483 9.16727C11.6992 9.11744 11.4501 9.11744 11.201 9.11744H1.38603C1.18675 9.61566 1.03728 10.1139 0.937636 10.6121H11.749L14.0408 10.3132C17.08 9.9146 20.8166 9.9146 23.8558 10.3132L26.1476 10.6121H28.0907Z" fill="#2D2E2E"/>
<path d="M28.3896 12.1566C28.4394 12.6548 28.4892 13.153 28.4892 13.6512H24.9021C24.8273 13.6512 24.7526 13.6388 24.6779 13.6263C24.6031 13.6139 24.5284 13.6014 24.4537 13.6014L23.0088 13.4021C20.2686 13.0036 17.3291 13.0036 14.5889 13.4021L13.144 13.6014C12.9946 13.6512 12.8451 13.6512 12.6956 13.6512H0.539062C0.539062 13.153 0.588885 12.6548 0.638707 12.1566H12.3469L14.29 12.4057C17.3291 12.8043 20.4679 12.8043 23.507 12.4057L25.4501 12.1566H28.3896Z" fill="#2D2E2E"/>
<path d="M14.5391 28C7.21522 28 1.18675 22.3701 0.588884 15.1957H14.4394C14.5889 15.1957 14.7383 15.1957 14.8878 15.2456L16.9803 15.694C18.2259 15.9431 19.5213 15.9431 20.7668 15.694L22.8593 15.2456C23.0088 15.1957 23.1583 15.1957 23.3077 15.1957H28.4892C27.8914 22.3701 21.8629 28 14.5391 28Z" fill="#2D2E2E"/>
<path d="M120.012 13.4021V18.2349C120.012 20.3274 120.81 21.1744 123.101 21.1744H125.044V18.4342H124.098C123.301 18.4342 123.052 18.1851 123.052 17.5872V13.4021H124.995V10.911H122.902V7.62278H119.963V10.911H118.219V13.4021H120.012ZM107.955 17.8363C108.304 19.7794 109.749 21.3238 113.037 21.3238C115.678 21.3238 117.92 20.2776 117.92 17.8861C117.92 15.4947 115.827 15.0961 113.436 14.6975C112.091 14.4484 111.343 14.3986 111.343 13.7509C111.343 13.2527 111.742 12.8541 112.738 12.8541C113.585 12.8541 114.432 13.153 114.582 13.8505H117.621C117.372 12.1068 115.877 10.5623 112.738 10.5623C110.247 10.5623 108.354 11.8078 108.354 13.8007C108.354 16.1922 110.297 16.5908 112.888 17.0392C114.333 17.2883 114.931 17.4377 114.931 18.0854C114.931 18.6335 114.183 18.9324 113.237 18.9324C111.891 18.9324 111.244 18.4342 111.044 17.7367H107.955V17.8363ZM99.0871 15.9929C99.0871 13.9502 99.9341 13.0534 101.379 13.0534C102.824 13.0534 103.671 13.9502 103.671 15.9929C103.671 18.0356 102.824 18.9324 101.379 18.9324C99.9341 18.9324 99.0871 18.0356 99.0871 15.9929ZM95.9483 15.9929C95.9483 20.1779 98.4893 21.3238 100.731 21.3238C101.827 21.3238 103.023 20.9751 103.721 20.1779V21.0747H106.66V10.911H104.019L103.77 11.8078C103.023 11.0107 101.827 10.6619 100.731 10.6619C98.4893 10.6619 95.9483 11.8078 95.9483 15.9929ZM91.4145 21.0747H94.5035V6.82563H91.4145V21.0747ZM82.2971 15.9929C82.2971 13.9502 83.1441 13.0534 84.5889 13.0534C86.0337 13.0534 86.8807 13.9502 86.8807 15.9929C86.8807 18.0356 86.0337 18.9324 84.5889 18.9324C83.1441 18.9324 82.2971 18.0356 82.2971 15.9929ZM79.2579 24.4626H82.2971V20.2776C83.0444 20.9751 84.1405 21.3238 85.1868 21.3238C87.4287 21.3238 89.9697 20.1779 89.9697 15.9929C89.9697 11.8078 87.4287 10.6619 85.1868 10.6619C84.0907 10.6619 82.8949 11.0107 82.1476 11.8078L81.8985 10.911H79.2579V24.4626ZM70.0907 15.9929C70.0907 13.9502 70.9376 13.0534 72.3825 13.0534C73.8273 13.0534 74.6743 13.9502 74.6743 15.9929C74.6743 18.0356 73.8273 18.9324 72.3825 18.9324C70.9376 18.9324 70.0907 18.0356 70.0907 15.9929ZM66.9519 15.9929C66.9519 20.0285 69.991 21.3737 72.3825 21.3737C74.7739 21.3737 77.8131 20.0783 77.8131 15.9929C77.8131 11.9075 74.7739 10.6121 72.3825 10.6121C69.991 10.6121 66.9519 11.9075 66.9519 15.9929ZM62.4679 21.0747H65.5569V6.82563H62.4679V21.0747ZM53.3006 15.9929C53.3006 13.9502 54.1476 13.0534 55.5925 13.0534C57.0373 13.0534 57.8843 13.9502 57.8843 15.9929C57.8843 18.0356 57.0373 18.9324 55.5925 18.9324C54.1476 18.9324 53.3006 18.0356 53.3006 15.9929ZM50.1618 15.9929C50.1618 20.0285 53.201 21.3737 55.5925 21.3737C57.9341 21.3737 61.0231 20.0783 61.0231 15.9929C61.0231 11.9075 57.9839 10.6121 55.5925 10.6121C53.201 10.6121 50.1618 11.9075 50.1618 15.9929ZM42.6885 21.3238C45.4786 21.3238 48.5675 19.7794 48.9661 16.1424H45.628C45.3789 17.5374 44.4323 18.5836 42.6885 18.5836C40.3967 18.5836 39.0515 16.8897 39.0515 13.9004C39.0515 10.911 40.3469 9.26691 42.5889 9.26691C44.3327 9.26691 45.3291 10.363 45.5782 11.758H48.9163C48.5177 8.121 45.4288 6.52669 42.5889 6.52669C39.2508 6.52669 35.5142 8.81851 35.5142 13.9502C35.564 19.8292 39.3006 21.3238 42.6885 21.3238Z" fill="#2D2E2E"/>
</svg>
