<svg width="142" height="20" viewBox="0 0 142 20" fill="none" xmlns="http://www.w3.org/2000/svg">
<path fill-rule="evenodd" clip-rule="evenodd" d="M27.0412 0C25.5058 2.39152 23.9647 4.77745 22.4255 7.16339C21.6935 6.88526 20.9596 6.6062 20.2266 6.32715C20.6702 5.5923 21.1127 4.85559 21.5563 4.12074L21.5544 4.1226C20.1317 4.81187 18.7109 5.50021 17.2882 6.18948C18.1546 6.51784 19.022 6.84713 19.8883 7.17734C20.424 7.38291 21.0601 7.63965 21.295 8.26752C21.5347 8.91214 21.1804 9.487 20.8675 9.97163C20.3948 10.7046 19.9222 11.4385 19.4476 12.1725C17.7637 14.7835 16.0789 17.3927 14.3874 20C14.3856 19.1954 14.3837 18.3908 14.3827 17.5852V17.5834C15.0292 15.5714 15.6598 13.5538 16.2677 11.5297C16.4416 10.9548 16.6107 10.38 16.7799 9.80327C16.8823 9.45631 16.8156 9.24887 16.4792 9.08423C15.6184 8.66192 14.7558 8.24241 13.8951 7.82196C13.0324 8.24241 12.1698 8.66192 11.309 9.08423C10.9717 9.24887 10.9069 9.45631 11.0074 9.80327C11.1766 10.38 11.3466 10.9548 11.5195 11.5297C12.1285 13.5538 12.759 15.5714 13.4064 17.5834L13.4045 17.5852C13.4045 18.3908 13.4008 19.1954 13.3998 20C11.7084 17.3927 10.0236 14.7835 8.33966 12.1725C7.86606 11.4385 7.3934 10.7046 6.92074 9.97163C6.60782 9.487 6.25262 8.91214 6.49224 8.26752C6.7281 7.63965 7.36333 7.38291 7.89989 7.17734C8.76627 6.84713 9.63266 6.51784 10.5009 6.18948H10.499C9.07731 5.50021 7.65557 4.81187 6.23289 4.1226L6.23101 4.12074C6.67454 4.85559 7.11807 5.5923 7.56066 6.32715C6.82771 6.6062 6.0957 6.88526 5.36275 7.16339C3.82261 4.77745 2.28059 2.39152 0.746094 0C5.12501 1.53574 9.49734 3.08544 13.8951 4.57188C18.289 3.08544 22.6623 1.53574 27.0412 0ZM56.858 4.71262V7.3525H41.5281C41.2691 7.3525 41.0596 7.54597 41.0596 7.7841V11.2863C41.0596 11.5244 41.2691 11.7179 41.5281 11.7179H56.858V14.3578H40.9961C39.5225 14.3578 38.3276 13.2573 38.3276 11.9002V7.17018C38.3276 5.81303 39.5225 4.71262 40.9961 4.71262H56.858ZM62.537 4.71262V11.2863C62.537 11.5244 62.7474 11.7179 63.0054 11.7179H74.2448C74.5038 11.7179 74.7151 11.5244 74.7151 11.2863V4.71262H77.9015V11.9002C77.9015 13.2573 76.7075 14.3578 75.234 14.3578H62.0172C60.5427 14.3578 59.3487 13.2573 59.3487 11.9002V4.71262H62.537ZM140.988 4.71262C141.018 4.73122 141.033 4.72285 141.035 4.71262V14.3578H138.036V11.4184H125.484V14.3578H122.486L122.459 7.17018C122.459 5.81303 123.653 4.71262 125.127 4.71262H140.988ZM96.2776 4.71262C98.2392 4.71262 98.9469 5.60839 98.9469 6.96554V8.96079C98.9469 10.3179 98.3467 11.4184 96.2776 11.4184H83.3693V14.3578H80.3689V4.71262H96.2776ZM117.667 4.65197C119.159 4.65197 120.369 5.53438 120.369 6.87219V8.83676C120.369 10.2076 119.424 11.1376 118.47 11.1376L120.608 14.1532H117.109L115.267 11.2586H104.739V14.1532L101.616 14.1468L101.606 4.65197H117.667ZM95.7465 6.82322H83.3693V9.08637H95.7465C96.0036 9.08637 96.2149 8.89289 96.2149 8.6529V7.25483C96.2149 7.0167 96.0036 6.82322 95.7465 6.82322ZM138.036 6.82322H125.928C125.668 6.82322 125.457 7.0167 125.457 7.25483V9.078C125.457 9.06977 126.088 9.06531 127.091 9.06342L127.388 9.06295C127.439 9.06288 127.491 9.06282 127.544 9.06276L129.719 9.06285C129.786 9.06291 129.854 9.06297 129.922 9.06303L130.333 9.06345C131.095 9.06431 131.898 9.06558 132.707 9.06711L133.148 9.06796C134.914 9.07148 136.672 9.07604 138.036 9.07986V6.82322ZM117.126 6.73108H104.739V8.96138H117.126C117.389 8.96138 117.602 8.76987 117.602 8.53438V7.15625C117.602 6.92167 117.389 6.73108 117.126 6.73108Z" fill="#2D2E2E"/>
</svg>
