<svg width="141" height="38" viewBox="0 0 141 38" fill="none" xmlns="http://www.w3.org/2000/svg">
<path d="M23.9264 0.5L20.7444 2.34076V6.0215L23.9264 7.86148L27.1084 6.0215V2.34076L23.9264 0.5Z" fill="#2D2E2E"/>
<path d="M29.1195 2.20824L30.4477 2.97599V4.5115L29.1195 5.27925L27.7921 4.5115V2.97599L29.1195 2.20824Z" fill="#2D2E2E"/>
<path d="M30.0955 5.42251L32.087 6.57414V8.8774L30.0955 10.029L28.104 8.8774V6.57414L30.0955 5.42251Z" fill="#2D2E2E"/>
<path d="M25.9179 8.16587L29.0998 10.0066V13.6874L25.9179 15.5274L22.7359 13.6874V10.0066L25.9179 8.16587Z" fill="#2D2E2E"/>
<path d="M30.9541 30.3121L28.9626 31.4637V33.7669L30.9541 34.9186L32.9456 33.7669V31.4637L30.9541 30.3121Z" fill="#2D2E2E"/>
<path d="M28.885 34.429L27.5575 35.1967V36.7322L28.885 37.5L30.2124 36.7322V35.1967L28.885 34.429Z" fill="#2D2E2E"/>
<path d="M26.1521 16.1843L22.9701 18.0251V21.7051L26.1521 23.5458L29.3341 21.7051V18.0251L26.1521 16.1843Z" fill="#2D2E2E"/>
<path d="M18.987 19.7022L19.9827 19.1256L20.9785 19.7022L21.9743 20.2772V22.5805L19.9827 23.7329L17.9912 22.5805V20.2772L18.987 19.7022Z" fill="#2D2E2E"/>
<path d="M31.7751 10.7808L29.7836 11.9324V14.2357L31.7751 15.3873L33.7666 14.2357V11.9324L31.7751 10.7808Z" fill="#2D2E2E"/>
<path d="M40.4428 6.55633L38.4513 7.70796V10.0112L40.4428 11.1628L42.4336 10.0112V7.70796L40.4428 6.55633Z" fill="#2D2E2E"/>
<path d="M27.3337 29.0618L26.875 29.3269L26.4164 29.5929V30.6536L26.875 30.9195L27.3337 31.1847L27.7923 30.9195L28.2509 30.6536V29.5929L27.7923 29.3269L27.3337 29.0618Z" fill="#2D2E2E"/>
<path d="M39.0463 32.4396L40.169 33.0887V34.3867L39.6072 34.7113L39.0463 35.0366L38.4853 34.7113L37.9235 34.3867V33.0887L39.0463 32.4396Z" fill="#2D2E2E"/>
<path d="M21.9258 24.3287L20.8031 24.9778V26.2766L21.9258 26.9257L23.0485 26.2766V24.9778L21.9258 24.3287Z" fill="#2D2E2E"/>
<path d="M35.6795 27.6657L37.788 28.8859V31.3241L35.6795 32.5435L33.571 31.3241V28.8859L35.6795 27.6657Z" fill="#2D2E2E"/>
<path d="M30.4868 22.5983L27.304 24.439V28.1198L30.4868 29.9598L33.6687 28.1198V24.439L30.4868 22.5983Z" fill="#2D2E2E"/>
<path d="M39.2325 21.1121L42.4145 22.9529V26.6336L39.2325 28.4736L36.0505 26.6336V22.9529L39.2325 21.1121Z" fill="#2D2E2E"/>
<path d="M41.9656 12.7818L38.7836 14.6218V18.3025L41.9656 20.1433L45.1476 18.3025V14.6218L41.9656 12.7818Z" fill="#2D2E2E"/>
<path d="M33.4924 15.2452L36.6752 17.086V20.7667L33.4924 22.6067L30.3105 20.7667V17.086L33.4924 15.2452Z" fill="#2D2E2E"/>
<path d="M17.8154 10.1293L15.8238 11.281V13.5842L17.8154 14.7359L19.8069 13.5842V11.281L17.8154 10.1293Z" fill="#2D2E2E"/>
<path d="M15.2585 21.3559L17.25 22.5075V24.8107L15.2585 25.9624L13.267 24.8107V22.5075L15.2585 21.3559Z" fill="#2D2E2E"/>
<path d="M10.6418 18.0357L8.65028 19.1873V21.4906L10.6418 22.6422L12.6333 21.4906V19.1873L10.6418 18.0357Z" fill="#2D2E2E"/>
<path d="M14.7902 18.0219L16.1176 18.7896V20.3251L14.7902 21.0929L13.4628 20.3251V18.7896L14.7902 18.0219Z" fill="#2D2E2E"/>
<path d="M11.2754 10.3568L8.09347 12.1968V15.8775L11.2754 17.7183L14.4582 15.8775V12.1968L11.2754 10.3568Z" fill="#2D2E2E"/>
<path d="M4.7551 13.1024L6.74663 14.254V16.558L4.7551 17.7097L2.76358 16.558V14.254L4.7551 13.1024Z" fill="#2D2E2E"/>
<path d="M5.80977 17.6365L3.81824 18.7881V21.0913L5.80977 22.243L7.80129 21.0913V18.7881L5.80977 17.6365Z" fill="#2D2E2E"/>
<path d="M16.5084 2.41623L19.6904 4.25698V7.93772L16.5084 9.77848L13.3256 7.93772V4.25698L16.5084 2.41623Z" fill="#2D2E2E"/>
<path d="M33.1214 1.13358L34.4488 1.90134V3.43684L33.1214 4.20459L31.794 3.43684V1.90134L33.1214 1.13358Z" fill="#2D2E2E"/>
<path d="M37.388 3.22018L36.2653 3.86923V5.16731L36.8262 5.49261L37.388 5.81713L37.949 5.49261L38.51 5.16731V3.86923L37.388 3.22018Z" fill="#2D2E2E"/>
<path d="M36.7722 10.2333L38.7637 11.3849V13.6882L36.7722 14.8398L34.7815 13.6882V11.3849L36.7722 10.2333Z" fill="#2D2E2E"/>
<path d="M21.2325 7.95241L20.1097 8.60222V9.90031L21.2325 10.5494L22.3552 9.90031V8.60222L21.2325 7.95241Z" fill="#2D2E2E"/>
<path d="M10.4562 5.89735L12.4085 7.02662V9.28517L10.4562 10.4137L8.50397 9.28517V7.02662L10.4562 5.89735Z" fill="#2D2E2E"/>
<path d="M5.96629 8.32232L4.01401 9.4516V11.7101L5.96629 12.8386L7.91857 11.7101V9.4516L5.96629 8.32232Z" fill="#2D2E2E"/>
<path d="M44.5429 26.6113L45.0015 26.8772L45.4601 27.1424V28.203L45.0015 28.469L44.5429 28.7341L44.0835 28.469L43.6248 28.203V27.1424L44.5429 26.6113Z" fill="#2D2E2E"/>
<path d="M10.3002 3.18331L9.38212 3.71442V4.77509L9.84152 5.04025L10.3002 5.30619L10.7588 5.04025L11.2174 4.77509V3.71442L10.7588 3.44848L10.3002 3.18331Z" fill="#2D2E2E"/>
<path d="M20.1785 14.1831L22.1693 15.3347V17.638L21.1743 18.2146L20.1785 18.7896L19.1827 18.2146L18.187 17.638V15.3347L20.1785 14.1831Z" fill="#2D2E2E"/>
<path d="M34.7424 5.65686L32.7509 6.80849V9.11174L34.7424 10.2634L36.7332 9.11174V6.80849L34.7424 5.65686Z" fill="#2D2E2E"/>
<path d="M16.0399 15.1959L17.3673 15.9637V17.4992L16.0399 18.2669L14.7117 17.4992V15.9637L16.0399 15.1959Z" fill="#2D2E2E"/>
<path d="M1.37723 17.6743L0.459961 18.2046V19.2661L0.918596 19.5312L1.37723 19.7972L2.29527 19.2661V18.2046L1.37723 17.6743Z" fill="#2D2E2E"/>
<path d="M71.3161 23.4179H68.67V13.3682L64.0991 19.3821H63.5779L59.107 13.3481V23.4179H56.4601V9.56721H59.5079L63.8983 15.5217L68.2895 9.56721H71.3161V23.4179Z" fill="#2D2E2E"/>
<path d="M76.0676 23.4179V13.6084H73.6223V23.4179H76.0676Z" fill="#2D2E2E"/>
<path d="M74.8449 12.2884C74.0604 12.2884 73.4194 11.6694 73.4011 10.8942C73.4194 10.119 74.0604 9.49998 74.8449 9.49998C75.6294 9.49998 76.2704 10.119 76.2887 10.8942C76.2704 11.6694 75.6294 12.2884 74.8449 12.2884Z" fill="#2D2E2E"/>
<path d="M87.9965 18.286V23.4171L85.552 23.4179V18.3061C85.552 16.82 84.7291 15.69 83.1662 15.69C82.4597 15.7085 81.7914 16.0104 81.3149 16.5262C80.8384 17.042 80.5949 17.7273 80.6404 18.4243V23.4179H78.2139V13.6308H80.402L80.5583 14.9585C81.3865 14.043 82.5639 13.511 83.8062 13.491C86.1319 13.491 87.9965 15.2142 87.9965 18.286Z" fill="#2D2E2E"/>
<path fill-rule="evenodd" clip-rule="evenodd" d="M97.9209 14.9748V9.56799L100.363 9.56721V23.4164H98.0772L97.9209 22.0693C97.2125 23.1107 96.0009 23.7055 94.7332 23.6342C93.3476 23.7058 91.9973 23.1875 91.0237 22.2103C90.0501 21.2332 89.5465 19.8907 89.6403 18.5224C89.6403 15.154 91.7863 13.4099 94.6731 13.4099C95.7156 13.4099 97.3395 13.9645 97.9209 14.9748ZM97.7906 18.5332C97.7906 16.9518 96.4936 15.6699 94.8937 15.6699C94.128 15.6462 93.3876 15.9419 92.8536 16.4847C92.3196 17.0275 92.0412 17.7673 92.0866 18.5231C92.0511 19.2782 92.332 20.0144 92.8632 20.5581C93.3944 21.1019 94.129 21.4051 94.8937 21.3965C96.4936 21.3965 97.7906 20.1145 97.7906 18.5332Z" fill="#2D2E2E"/>
<path fill-rule="evenodd" clip-rule="evenodd" d="M104.938 22.2687V27.4978L102.496 27.5001V13.6525H104.782L104.942 14.9996C105.694 13.9996 106.886 13.4172 108.146 13.4339C109.52 13.3975 110.847 13.9279 111.81 14.8979C112.772 15.868 113.282 17.1901 113.219 18.5472C113.219 21.4005 111.394 23.659 108.226 23.659C107.183 23.659 105.641 23.3392 104.938 22.2687ZM105.96 20.5266C106.491 21.0508 107.215 21.3371 107.965 21.3187C108.715 21.3369 109.44 21.0505 109.97 20.5264C110.501 20.0022 110.791 19.2861 110.772 18.545C110.772 17.0127 109.516 15.7705 107.965 15.7705C106.415 15.7705 105.158 17.0127 105.158 18.545C105.14 19.2862 105.43 20.0024 105.96 20.5266Z" fill="#2D2E2E"/>
<path fill-rule="evenodd" clip-rule="evenodd" d="M115.992 14.8916C116.963 13.9248 118.297 13.4018 119.674 13.4484C121.057 13.3996 122.398 13.9199 123.379 14.8852C124.359 15.8506 124.891 17.1745 124.847 18.5416C124.869 20.3725 123.894 22.074 122.294 22.996C120.693 23.918 118.715 23.918 117.114 22.996C115.514 22.074 114.539 20.3725 114.561 18.5416C114.503 17.1811 115.022 15.8583 115.992 14.8916ZM121.649 16.5402C121.144 15.9965 120.44 15.6753 119.694 15.6483C118.94 15.6542 118.223 15.9691 117.714 16.5177C117.204 17.0663 116.948 17.7994 117.007 18.5418C116.926 19.5412 117.42 20.5009 118.284 21.0252C119.149 21.5494 120.238 21.5494 121.103 21.0252C121.968 20.5009 122.461 19.5412 122.381 18.5418C122.417 17.8047 122.154 17.0839 121.649 16.5402Z" fill="#2D2E2E"/>
<path fill-rule="evenodd" clip-rule="evenodd" d="M127.5 14.8917C128.47 13.925 129.805 13.402 131.182 13.4486C132.564 13.4012 133.905 13.9219 134.885 14.8869C135.865 15.852 136.397 17.1751 136.354 18.5418C136.377 20.3727 135.402 22.0742 133.801 22.9962C132.201 23.9182 130.222 23.9182 128.622 22.9962C127.021 22.0742 126.046 20.3727 126.069 18.5418C126.011 17.1813 126.53 15.8585 127.5 14.8917ZM133.156 16.54C132.652 15.9963 131.947 15.6751 131.201 15.6483C130.448 15.6542 129.731 15.9691 129.221 16.5177C128.712 17.0663 128.456 17.7994 128.514 18.5418C128.433 19.5412 128.927 20.5009 129.792 21.0252C130.657 21.5494 131.746 21.5494 132.611 21.0252C133.475 20.5009 133.969 19.5412 133.888 18.5418C133.925 17.8047 133.661 17.0837 133.156 16.54Z" fill="#2D2E2E"/>
<path d="M138.038 23.4179V9.56492L140.461 9.56724V23.4179H138.038Z" fill="#2D2E2E"/>
</svg>
