<svg width="136" height="10" viewBox="0 0 136 10" fill="none" xmlns="http://www.w3.org/2000/svg">
<path d="M15.6147 7.13C17.0577 7.13 17.8347 6.353 17.8347 4.91V2.72C17.8347 1.277 17.0577 0.5 15.6147 0.5H0.554688V9.5H2.59469V7.13H15.6147ZM15.7947 2.84V4.79C15.7947 5.024 15.6687 5.15 15.4347 5.15H2.59469V2.48H15.4347C15.6687 2.48 15.7947 2.606 15.7947 2.84ZM22.6347 9.5C21.1917 9.5 20.4147 8.723 20.4147 7.28V2.72C20.4147 1.277 21.1917 0.5 22.6347 0.5H35.1447C36.5877 0.5 37.3647 1.277 37.3647 2.72V7.28C37.3647 8.723 36.5877 9.5 35.1447 9.5H22.6347ZM34.9647 7.52C35.1987 7.52 35.3247 7.394 35.3247 7.16V2.84C35.3247 2.606 35.1987 2.48 34.9647 2.48H22.8147C22.5807 2.48 22.4547 2.606 22.4547 2.84V7.16C22.4547 7.394 22.5807 7.52 22.8147 7.52H34.9647ZM55.2147 6.44C56.41 6.94271 57.2503 8.123 57.2547 9.5H55.2147C55.2147 7.88 54.4647 7.13 52.8447 7.13H42.0147V9.5H39.9747V0.5H55.0347C56.4777 0.5 57.2547 1.277 57.2547 2.72V4.2242C57.2547 5.606 56.5422 6.377 55.2147 6.44ZM54.8547 5.15C55.0887 5.15 55.2147 5.024 55.2147 4.79V2.84C55.2147 2.606 55.0887 2.48 54.8547 2.48H42.0147V5.15H54.8547ZM59.7147 2.72C59.7147 1.277 60.4917 0.5 61.9347 0.5H76.6947V2.18H62.1147C61.8807 2.18 61.7547 2.306 61.7547 2.54V3.8C61.7547 4.034 61.8807 4.16 62.1147 4.16H74.7747C76.2177 4.16 76.9947 4.937 76.9947 6.38V7.28C76.9947 8.723 76.2177 9.5 74.7747 9.5H60.0147V7.82H74.5947C74.8287 7.82 74.9547 7.694 74.9547 7.46V6.2C74.9547 5.966 74.8287 5.84 74.5947 5.84H61.9347C60.4917 5.84 59.7147 5.063 59.7147 3.62V2.72ZM79.5447 2.72C79.5447 1.277 80.3217 0.5 81.7647 0.5H96.1647V2.48H81.9447C81.7107 2.48 81.5847 2.606 81.5847 2.84V7.16C81.5847 7.394 81.7107 7.52 81.9447 7.52H96.1647V9.5H81.7647C80.3217 9.5 79.5447 8.723 79.5447 7.28V2.72ZM115.065 0.5V9.5H113.025V5.99H100.815V9.5H98.7747V0.5H100.815V4.01H113.025V0.5H115.065ZM119.745 2.18V4.16H135.555V5.84H119.745V7.82H135.555V9.5H117.705V0.5H135.555V2.18H119.745Z" fill="#2D2E2E"/>
</svg>
