<svg width="41" height="42" viewBox="0 0 41 42" fill="none" xmlns="http://www.w3.org/2000/svg">
<path fill-rule="evenodd" clip-rule="evenodd" d="M20.6967 0.989258C31.7294 0.989258 40.6968 9.93138 40.6968 21.0001C40.6968 32.0687 31.7294 41.0108 20.6967 41.0108C9.66416 41.0108 0.696777 32.0687 0.696777 21.0001C0.696777 9.98595 9.66416 0.989258 20.6967 0.989258ZM31.2138 14.8662L19.3659 7.39624L14.3115 10.1225L24.9637 16.8837L16.9746 21.1912C16.1594 21.6274 15.6159 22.4452 15.6159 23.3721L15.6703 35.1496L20.616 32.3688V24.8989L31.0507 19.2283C31.8115 18.792 32.3007 17.9741 32.3551 17.1562C32.4093 16.2839 31.9746 15.4115 31.2138 14.9207V14.8662Z" fill="#2D2E2E"/>
</svg>
