<svg width="108" height="32" viewBox="0 0 108 32" fill="none" xmlns="http://www.w3.org/2000/svg">
<path fill-rule="evenodd" clip-rule="evenodd" d="M107.746 17.0616H103.651L99.3288 10.3886C98.6463 9.32703 98.4947 9.25119 97.1298 9.25119V16.1517H99.4805V16.9858H92.125V16.1517H94.4757V1.13744H92.125V0.303318H99.708C102.589 0.303318 105.319 0.909954 105.319 4.47394C105.319 7.27963 103.424 8.64456 100.921 8.87205L106.533 16.2275H107.746V17.0616ZM97.3572 1.21327C97.0539 1.36493 97.0539 1.66825 97.0539 1.89574H97.1298V8.56873C100.315 8.56873 102.665 8.4929 102.665 4.77726C102.665 2.50237 101.3 1.13744 99.0255 1.13744H97.9639C97.6606 1.13744 97.4331 1.13744 97.3572 1.21327Z" fill="#2D2E2E"/>
<path d="M88.6369 13.0427L88.1819 17.0616H74.9117V16.2275H77.3383V1.21327H74.9117V0.379147H87.4994V4.09479H86.9686L85.5279 1.97157L85.5082 1.94411C85.1433 1.4329 84.9865 1.21327 84.3904 1.21327H79.9165V8.03792H81.7364C82.343 8.03792 82.9497 8.03792 83.1771 7.81043L84.4662 6.52133H84.997V10.3128H84.4662L83.1771 9.02371C82.8738 8.79622 82.1155 8.79622 81.4331 8.79622H79.9165V15.4692C79.9165 15.9242 80.144 16.2275 81.3572 16.2275H84.9212C85.452 16.2275 85.6795 16 86.0587 15.545L88.1061 13.0427H88.6369Z" fill="#2D2E2E"/>
<path d="M71.8786 13.0427L71.4236 17.0616H57.3193V16.2275H59.7458V1.2891H57.3193V0.303318H64.8264V1.2891H62.324V15.4692C62.324 15.9242 62.5515 16.2275 63.7648 16.2275H68.1629C68.6937 16.2275 68.9212 16 69.3004 15.545L71.3477 13.0427H71.8786Z" fill="#2D2E2E"/>
<path d="M53.3762 0.379147V1.2891H50.9496V16.3033H53.2245V17.1375H46.0207V16.3033H48.2956V2.80569H48.2198L45.3382 9.85783L42.1534 17.1375H41.9259L35.7837 2.72986H35.7079V16.2275H37.9828V17.0616H32.5989V16.2275H34.8738V1.21327H32.4472V0.379147H37.3762L42.9875 13.346L48.4473 0.379147H53.3762Z" fill="#2D2E2E"/>
<path d="M29.1866 13.0427L28.7316 17.0616H15.4615V16.2275H17.888V1.21327H15.4615V0.379147H28.0491V4.09479H27.5183L26.0776 1.97157L26.058 1.94411C25.693 1.43291 25.5362 1.21327 24.9401 1.21327H20.4662V8.03792H22.2861C22.8927 8.03792 23.4994 8.03792 23.7269 7.81043L25.016 6.52133H25.5468V10.3128H25.016L23.7269 9.02371C23.4235 8.79622 22.6652 8.79622 21.9828 8.79622H20.4662V15.4692C20.4662 15.9242 20.6937 16.2275 21.907 16.2275H25.4709C26.0017 16.2275 26.2292 16 26.6084 15.545L28.6558 13.0427H29.1866Z" fill="#2D2E2E"/>
<path d="M1.48847 16.5944C1.34122 16.5466 1.19701 16.4997 1.05386 16.455H0.978027V12.0569H1.73632C2.26713 14.6351 3.55623 16.3792 6.13443 16.3792C8.10599 16.3792 9.77424 15.545 9.77424 13.4976C9.77424 11.2228 7.72685 10.3128 5.90694 9.55451C3.55623 8.64456 1.12969 7.43129 1.12969 4.54977C1.12969 1.66825 3.32874 0 6.13443 0C8.25765 0 9.77424 0.379147 10.9875 0.909954V4.32228H10.1534C9.69841 2.5782 8.25765 0.909954 6.13443 0.909954C4.54201 0.909954 3.17708 1.66825 3.17708 3.3365C3.17708 5.23223 4.92116 5.99053 6.43775 6.59716L6.58941 6.67299C9.24344 7.81043 12.2008 9.09954 12.2008 12.436C12.2008 15.7725 9.09178 17.3649 6.13443 17.3649C3.86043 17.3649 2.58927 16.952 1.48847 16.5944Z" fill="#2D2E2E"/>
<path d="M1.05393 32V25.2512H107.746V32H106.912V28.0569H1.88806V32H1.05393Z" fill="#2D2E2E"/>
</svg>
