<svg width="146" height="18" viewBox="0 0 146 18" fill="none" xmlns="http://www.w3.org/2000/svg">
<path d="M49.8629 2.81721H48.7239C48.0251 2.81721 47.6628 2.46808 47.6628 1.79498V1.04711C47.6628 0.374008 48.0251 0 48.7239 0H49.8629C50.5617 0 50.95 0.374008 50.95 1.04711V1.79498C50.95 2.46808 50.5617 2.81721 49.8629 2.81721Z" fill="#2D2E2E"/>
<path d="M48.7239 17.7008C48.0251 17.7008 47.6628 17.3518 47.6628 16.6537V6.03317C47.6628 5.36007 48.0251 4.9862 48.7239 4.9862H49.8629C50.5617 4.9862 50.924 5.36007 50.924 6.03317V16.6537C50.924 17.3518 50.5617 17.7008 49.8629 17.7008H48.7239Z" fill="#2D2E2E"/>
<path d="M0.542657 16.7036C1.3451 17.2271 2.82039 18 4.94285 18C7.99719 18 9.9644 16.3295 9.9644 14.0858C9.9644 11.5263 7.68457 10.7634 5.81526 10.1379C4.51641 9.70325 3.41576 9.33494 3.41576 8.47638C3.41576 7.67861 4.06279 7.22997 5.20172 7.22997C6.28886 7.22997 7.14295 7.60383 7.7125 7.85317C8.35952 8.12739 8.85129 8.05262 9.16196 7.45429L9.42083 7.00551C9.70553 6.43206 9.6279 5.9085 9.03253 5.60941C8.3337 5.2354 7.11713 4.68697 5.35699 4.68697C2.58749 4.68697 0.309763 6.00829 0.309763 8.5014C0.309763 11.085 2.60617 11.8676 4.47921 12.5059C5.76913 12.9455 6.85826 13.3167 6.85826 14.1606C6.85826 14.9585 6.15942 15.457 5.02049 15.457C3.73439 15.457 2.77902 14.9562 2.15465 14.6289L2.06975 14.5845C1.42273 14.2603 0.982618 14.3102 0.594461 14.8338L0.283787 15.2824C-0.104369 15.831 -0.052714 16.3794 0.542657 16.7036Z" fill="#2D2E2E"/>
<path fill-rule="evenodd" clip-rule="evenodd" d="M10.8443 11.3435C10.8443 14.9585 13.5621 18 17.9365 18C20.0072 18 21.5603 17.252 22.4143 16.7284C22.9837 16.4043 23.0873 15.9058 22.7767 15.3323L22.4661 14.8338C22.1296 14.2603 21.6637 14.1856 21.0167 14.4847C20.3955 14.8587 19.386 15.3075 18.1694 15.3075C16.1764 15.3075 14.4162 14.1108 14.2092 11.8171H22.2591C22.9061 11.8171 23.398 11.2936 23.398 10.7452C23.398 7.25485 21.3014 4.68697 17.5482 4.68697C13.588 4.68697 10.8443 7.42941 10.8443 11.3435ZM14.287 9.89749C14.5975 8.20216 15.7881 7.08028 17.4706 7.08028C18.9718 7.08028 20.0848 8.12739 20.1366 9.89749H14.287Z" fill="#2D2E2E"/>
<path d="M26.0641 17.7008C25.3652 17.7008 25.0029 17.3518 25.0029 16.6537V6.0332C25.0029 5.3601 25.3652 4.98623 26.0641 4.98623H27.0736C27.7724 4.98623 28.1607 5.3601 28.1607 6.0332V7.22999C28.1607 7.70365 28.0831 8.10254 28.0831 8.10254H28.1349C28.6525 6.58177 30.1019 4.88644 31.9657 4.88644C32.6903 4.88644 32.9492 5.23543 32.9492 5.93355V6.90588C32.9492 7.57898 32.5351 7.95285 31.8362 7.95285C29.4291 7.95285 28.2643 10.2465 28.2643 12.565V16.6537C28.2643 17.3518 27.9018 17.7008 27.203 17.7008H26.0641Z" fill="#2D2E2E"/>
<path d="M37.853 16.8531C38.0341 17.4514 38.4482 17.7008 39.0696 17.7008H41.1402C41.7614 17.7008 42.1496 17.4514 42.3566 16.8531L46.3429 6.18287C46.6016 5.45987 46.2652 4.98622 45.4628 4.98622H44.2462C43.625 4.98622 43.2109 5.26043 43.0296 5.85876L40.5707 12.8643C40.312 13.6121 40.1049 14.7839 40.1049 14.7839H40.0531C40.0531 14.7839 39.82 13.6121 39.5613 12.8643L37.1023 5.85876C36.9211 5.26043 36.507 4.98622 35.8858 4.98622H34.6692C33.8669 4.98622 33.5562 5.45987 33.8151 6.18287L37.853 16.8531Z" fill="#2D2E2E"/>
<path d="M52.5808 11.3435C52.5808 15.0332 55.3762 18 59.7505 18C62.0284 18 63.6331 17.1024 64.4356 16.529C64.9532 16.18 65.0308 15.6815 64.7203 15.1329L64.4614 14.6592C64.1249 14.0609 63.6331 13.9861 62.986 14.3351C62.3648 14.759 61.3294 15.3075 60.0352 15.3075C57.4986 15.3075 55.9197 13.4626 55.9197 11.3185C55.9197 9.14962 57.4986 7.37951 59.9318 7.37951C61.0707 7.37951 61.9506 7.80328 62.4942 8.15226C63.1154 8.4515 63.5555 8.4515 63.9437 7.87805L64.2802 7.37951C64.6426 6.83094 64.6167 6.30753 64.0731 5.9584C63.2966 5.43484 61.873 4.68697 59.7505 4.68697C55.3762 4.68697 52.5808 7.7285 52.5808 11.3435Z" fill="#2D2E2E"/>
<path fill-rule="evenodd" clip-rule="evenodd" d="M72.6407 18C68.2665 18 65.5487 14.9585 65.5487 11.3435C65.5487 7.42941 68.2923 4.68697 72.2526 4.68697C76.0056 4.68697 78.1022 7.25485 78.1022 10.7452C78.1022 11.2936 77.6105 11.8171 76.9633 11.8171H68.9135C69.1206 14.1108 70.8807 15.3075 72.8738 15.3075C74.0902 15.3075 75.0997 14.8587 75.7209 14.4847C76.3681 14.1856 76.834 14.2603 77.1704 14.8338L77.481 15.3323C77.7916 15.9058 77.6881 16.4043 77.1187 16.7284C76.2645 17.252 74.7115 18 72.6407 18ZM72.1749 7.08028C70.4924 7.08028 69.3018 8.20216 68.9912 9.89749H74.8408C74.7892 8.12739 73.6761 7.08028 72.1749 7.08028Z" fill="#2D2E2E"/>
<path d="M79.6812 13.7368C79.6812 17.3767 81.9331 17.8254 83.6933 17.8254C84.4697 17.8254 84.7803 17.4017 84.7803 16.7534V15.9058C84.7803 15.3323 84.4439 15.0581 83.978 15.0082C83.4862 14.9585 82.9426 14.734 82.9426 13.4875V1.04711C82.9426 0.374008 82.5802 0 81.8813 0H80.7425C80.0436 0 79.6812 0.374008 79.6812 1.04711V13.7368Z" fill="#2D2E2E"/>
<path fill-rule="evenodd" clip-rule="evenodd" d="M92.5709 18C88.5591 18 85.3235 15.2576 85.3235 11.3435C85.3235 7.45429 88.5591 4.68697 92.5709 4.68697C96.583 4.68697 99.8442 7.45429 99.8442 11.3435C99.8442 15.2576 96.583 18 92.5709 18ZM92.5709 7.37951C90.4227 7.37951 88.6625 8.99993 88.6625 11.3435C88.6625 13.7119 90.4227 15.3075 92.5709 15.3075C94.7192 15.3075 96.5054 13.7119 96.5054 11.3435C96.5054 8.99993 94.7192 7.37951 92.5709 7.37951Z" fill="#2D2E2E"/>
<path d="M104.348 16.8531C104.53 17.4514 104.944 17.7008 105.565 17.7008H107.636C108.257 17.7008 108.645 17.4514 108.852 16.8531L112.838 6.18287C113.097 5.45987 112.761 4.98622 111.958 4.98622H110.742C110.12 4.98622 109.706 5.26043 109.525 5.85876L107.066 12.8643C106.807 13.6121 106.6 14.7839 106.6 14.7839H106.548C106.548 14.7839 106.316 13.6121 106.057 12.8643L103.598 5.85876C103.416 5.26043 103.002 4.98622 102.381 4.98622H101.165C100.362 4.98622 100.052 5.45987 100.31 6.18287L104.348 16.8531Z" fill="#2D2E2E"/>
<path fill-rule="evenodd" clip-rule="evenodd" d="M120.448 18C116.073 18 113.356 14.9585 113.356 11.3435C113.356 7.42941 116.099 4.68697 120.059 4.68697C123.813 4.68697 125.909 7.25485 125.909 10.7452C125.909 11.2936 125.417 11.8171 124.77 11.8171H116.72C116.927 14.1108 118.688 15.3075 120.681 15.3075C121.897 15.3075 122.907 14.8587 123.528 14.4847C124.175 14.1856 124.641 14.2603 124.977 14.8338L125.288 15.3323C125.599 15.9058 125.495 16.4043 124.926 16.7284C124.071 17.252 122.518 18 120.448 18ZM119.982 7.08028C118.299 7.08028 117.109 8.20216 116.798 9.89749H122.648C122.596 8.12739 121.483 7.08028 119.982 7.08028Z" fill="#2D2E2E"/>
<path d="M127.514 16.6537C127.514 17.3518 127.876 17.7008 128.575 17.7008H129.714C130.413 17.7008 130.775 17.3518 130.775 16.6537V12.565C130.775 10.2465 131.94 7.95285 134.347 7.95285C135.046 7.95285 135.46 7.57898 135.46 6.90588V5.93355C135.46 5.23543 135.202 4.88644 134.477 4.88644C132.613 4.88644 131.164 6.58177 130.646 8.10254H130.594C130.594 8.10254 130.672 7.70365 130.672 7.22999V6.0332C130.672 5.3601 130.284 4.98623 129.585 4.98623H128.575C127.876 4.98623 127.514 5.3601 127.514 6.0332V16.6537Z" fill="#2D2E2E"/>
<path d="M140.534 18C138.411 18 136.936 17.2271 136.133 16.7036C135.538 16.3794 135.486 15.831 135.875 15.2824L136.185 14.8338C136.573 14.3102 137.013 14.2603 137.66 14.5845C137.688 14.5989 137.716 14.6137 137.746 14.629C138.37 14.9563 139.325 15.457 140.611 15.457C141.75 15.457 142.449 14.9585 142.449 14.1606C142.449 13.3167 141.36 12.9455 140.07 12.5059C138.197 11.8676 135.9 11.085 135.9 8.5014C135.9 6.00829 138.178 4.68697 140.948 4.68697C142.708 4.68697 143.924 5.2354 144.623 5.60941C145.218 5.9085 145.296 6.43206 145.011 7.00551L144.753 7.45429C144.442 8.05262 143.95 8.12739 143.303 7.85317C142.734 7.60383 141.88 7.22997 140.792 7.22997C139.654 7.22997 139.006 7.67861 139.006 8.47638C139.006 9.33494 140.107 9.70325 141.406 10.1379C143.275 10.7634 145.555 11.5263 145.555 14.0858C145.555 16.3295 143.588 18 140.534 18Z" fill="#2D2E2E"/>
</svg>
