<svg width="117" height="16" viewBox="0 0 117 16" fill="none" xmlns="http://www.w3.org/2000/svg">
<path d="M6.52013 16C5.45505 16 4.4728 15.8146 3.57339 15.4438C2.68187 15.073 1.95603 14.5089 1.39587 13.7515C0.843606 12.9941 0.547748 12.0316 0.508301 10.8639H3.25386C3.25386 11.4556 3.39982 11.9408 3.69173 12.3195C3.98365 12.6982 4.37418 12.9822 4.86333 13.1716C5.36037 13.3531 5.90475 13.4438 6.49647 13.4438C7.06451 13.4438 7.56944 13.3688 8.01126 13.2189C8.46096 13.069 8.81205 12.856 9.06451 12.5799C9.32487 12.2959 9.45505 11.9606 9.45505 11.574C9.45505 11.0611 9.29725 10.6588 8.98167 10.3669C8.67398 10.075 8.17694 9.80671 7.49055 9.56213L4.46096 8.35503C3.27753 7.88955 2.37023 7.34911 1.73907 6.73373C1.10791 6.11834 0.792324 5.27022 0.792324 4.18935C0.792324 2.9428 1.28542 1.93294 2.27161 1.15976C3.25781 0.386588 4.63453 0 6.40179 0C8.12171 0 9.4511 0.402367 10.39 1.2071C11.3288 2.00395 11.8614 3.11637 11.9876 4.54438H9.24203C9.13946 3.93688 8.86333 3.45168 8.41363 3.08876C7.96392 2.71795 7.29331 2.53255 6.40179 2.53255C5.61284 2.53255 4.98956 2.69823 4.53197 3.02959C4.07438 3.35306 3.84558 3.76331 3.84558 4.26036C3.84558 4.68639 3.98759 5.02564 4.27161 5.27811C4.56353 5.52268 5.01323 5.75937 5.62073 5.98817L8.98167 7.28994C10.1178 7.73176 10.9896 8.28797 11.5971 8.95858C12.2046 9.62919 12.5083 10.4694 12.5083 11.4793C12.5083 12.4024 12.2756 13.2032 11.8101 13.8817C11.3446 14.5523 10.6661 15.073 9.77457 15.4438C8.88305 15.8146 7.79824 16 6.52013 16Z" fill="#2D2E2E"/>
<path d="M19.8147 15.6686V0.307693H22.6076V15.6686H19.8147Z" fill="#2D2E2E"/>
<path d="M30.5292 0.307693H33.5824L40.5647 11.2663H40.3517V0.307693H43.1446V15.6686H40.3043L32.8724 4.04734H33.3221V15.6686H30.5292V0.307693Z" fill="#2D2E2E"/>
<path d="M56.9622 16C55.5974 16 54.3903 15.7002 53.341 15.1006C52.2995 14.501 51.483 13.6055 50.8912 12.4142C50.2995 11.2229 50.0037 9.74359 50.0037 7.97633C50.0037 6.17752 50.2995 4.69034 50.8912 3.51479C51.483 2.33136 52.2995 1.45168 53.341 0.875741C54.3903 0.291914 55.5974 0 56.9622 0C58.335 0 59.5461 0.299803 60.5954 0.899409C61.6447 1.49112 62.4652 2.3787 63.0569 3.56213C63.6486 4.74556 63.9445 6.21696 63.9445 7.97633C63.9445 9.76726 63.6486 11.2584 63.0569 12.4497C62.4652 13.641 61.6447 14.5325 60.5954 15.1243C59.5461 15.7081 58.335 16 56.9622 16ZM56.9622 13.4675C58.2167 13.4675 59.2108 12.9941 59.9445 12.0473C60.6861 11.1006 61.0569 9.7357 61.0569 7.95266C61.0569 6.23274 60.6861 4.89546 59.9445 3.94083C59.2108 2.98619 58.2167 2.50888 56.9622 2.50888C55.7315 2.50888 54.7453 2.99014 54.0037 3.95266C53.2621 4.9073 52.8912 6.24852 52.8912 7.97633C52.8912 9.75148 53.2621 11.1124 54.0037 12.0592C54.7453 12.998 55.7315 13.4675 56.9622 13.4675Z" fill="#2D2E2E"/>
<path d="M70.752 0.307693H73.8053L80.7875 11.2663H80.5745V0.307693H83.3674V15.6686H80.5272L73.0952 4.04734H73.5449V15.6686H70.752V0.307693Z" fill="#2D2E2E"/>
<path d="M89.4928 15.0296V12.2367C90.1239 12.5996 90.7393 12.8639 91.3389 13.0296C91.9464 13.1953 92.5066 13.2781 93.0194 13.2781C93.6979 13.2781 94.191 13.0809 94.4987 12.6864C94.8064 12.2919 94.9602 11.6923 94.9602 10.8876V0.307693H97.7768V10.8876C97.7768 12.1262 97.5835 13.1203 97.1969 13.8698C96.8103 14.6193 96.2778 15.1637 95.5993 15.503C94.9208 15.8343 94.1397 16 93.2561 16C92.5618 16 91.8991 15.9053 91.2679 15.716C90.6367 15.5345 90.045 15.3057 89.4928 15.0296Z" fill="#2D2E2E"/>
<path d="M110.708 16C109.643 16 108.661 15.8146 107.762 15.4438C106.87 15.073 106.144 14.5089 105.584 13.7515C105.032 12.9941 104.736 12.0316 104.697 10.8639H107.442C107.442 11.4556 107.588 11.9408 107.88 12.3195C108.172 12.6982 108.562 12.9822 109.052 13.1716C109.549 13.3531 110.093 13.4438 110.685 13.4438C111.253 13.4438 111.758 13.3688 112.199 13.2189C112.649 13.069 113 12.856 113.253 12.5799C113.513 12.2959 113.643 11.9606 113.643 11.574C113.643 11.0611 113.485 10.6588 113.17 10.3669C112.862 10.075 112.365 9.80671 111.679 9.56213L108.649 8.35503C107.466 7.88955 106.558 7.34911 105.927 6.73373C105.296 6.11834 104.981 5.27022 104.981 4.18935C104.981 2.9428 105.474 1.93294 106.46 1.15976C107.446 0.386588 108.823 0 110.59 0C112.31 0 113.639 0.402367 114.578 1.2071C115.517 2.00395 116.05 3.11637 116.176 4.54438H113.43C113.328 3.93688 113.052 3.45168 112.602 3.08876C112.152 2.71795 111.482 2.53255 110.59 2.53255C109.801 2.53255 109.178 2.69823 108.72 3.02959C108.263 3.35306 108.034 3.76331 108.034 4.26036C108.034 4.68639 108.176 5.02564 108.46 5.27811C108.752 5.52268 109.201 5.75937 109.809 5.98817L113.17 7.28994C114.306 7.73176 115.178 8.28797 115.785 8.95858C116.393 9.62919 116.697 10.4694 116.697 11.4793C116.697 12.4024 116.464 13.2032 115.998 13.8817C115.533 14.5523 114.854 15.073 113.963 15.4438C113.071 15.8146 111.986 16 110.708 16Z" fill="#2D2E2E"/>
</svg>
