<svg width="121" height="16" viewBox="0 0 121 16" fill="none" xmlns="http://www.w3.org/2000/svg">
<path d="M0.459961 16L2.68303 12.6125H15.5769C16.3073 12.6125 16.7837 12.1587 16.7837 11.4631V9.4971H5.70005C2.3972 9.4971 0.936361 8.1059 0.936361 5.0208V3.69C0.936361 1.3913 2.36545 0 4.62028 0H4.87434V4.9603C4.87434 5.6559 5.35074 6.1096 6.08116 6.1096H16.8154C19.2608 6.1096 20.7217 7.5009 20.7217 9.7694V11.5236C20.7217 14.5179 19.1655 16 15.958 16H0.459961ZM77.7254 12.552H87.6974C89.3489 12.552 90.3969 11.5841 90.3969 10.0718V5.9282C90.3969 4.4159 89.3489 3.448 87.6974 3.448H77.7254V12.552ZM73.7239 16V0H87.7928C91.9848 0 94.3985 2.2987 94.3985 6.1096V9.8903C94.3985 13.7013 91.9848 16 87.7928 16H73.7239ZM54.332 12.552H62.748C64.2723 12.552 65.2568 11.6446 65.2568 10.2231V5.7769C65.2568 4.3554 64.2723 3.448 62.748 3.448H54.332C52.8077 3.448 51.8232 4.3554 51.8232 5.7769V10.223C51.8232 11.6446 52.8077 12.552 54.332 12.552ZM62.8432 16H54.2368C50.1718 16 47.8216 13.7618 47.8216 10.0416V5.9584C47.8216 2.2382 50.1717 0 54.2368 0H62.8432C66.9082 0 69.2584 2.2382 69.2584 5.9584V10.0416C69.2584 13.7618 66.9083 16 62.8432 16ZM96.038 16L105.47 0H111.028L120.46 16H115.887L114.267 13.2476H106.232L104.073 9.9811L100.516 16H96.038ZM104.168 9.7996H112.235L108.201 2.9943L104.168 9.7996ZM8.81236 3.327L6.52577 0H20.3406L18.1175 3.327H8.81236ZM25.1249 16V0H29.1265V6.2306H34.4301L41.3216 0H46.6252L37.86 7.9546L46.784 16H41.1628L34.2713 9.6786H29.1265V16H25.1249Z" fill="#2D2E2E"/>
</svg>
