<svg width="156" height="16" viewBox="0 0 156 16" fill="none" xmlns="http://www.w3.org/2000/svg">
<path fill-rule="evenodd" clip-rule="evenodd" d="M60.7876 14.1152V1.8847C60.7876 0.92069 61.5491 0.160156 62.5123 0.160156H71.1963C72.0447 0.160156 72.7405 0.85404 72.7405 1.70563C72.7405 2.5562 72.0447 3.22872 71.1963 3.22872H64.2115V6.40971H70.1868C71.0382 6.40971 71.731 7.10411 71.731 7.95519C71.731 8.80525 71.0382 9.47877 70.1868 9.47877H64.2115V12.7702H71.3076C72.1565 12.7702 72.8518 13.4656 72.8518 14.3161C72.8518 15.1677 72.1565 15.8398 71.3076 15.8398H62.5123C61.5491 15.8398 60.7876 15.0782 60.7876 14.1152Z" fill="#2D2E2E"/>
<path fill-rule="evenodd" clip-rule="evenodd" d="M90.4878 7.71193C92.3092 7.71193 93.3538 6.82213 93.3538 5.51314V5.46875C93.3538 4.00237 92.2374 3.24675 90.414 3.24675H86.6986V7.71193H90.4878ZM82.9595 1.87016C82.9595 0.91428 83.7852 0.160156 84.8298 0.160156H90.7305C92.8923 0.160156 94.5678 0.71553 95.6842 1.73599C96.6318 2.60259 97.1431 3.82482 97.1431 5.28968V5.33457C97.1431 7.77802 95.8081 9.28876 93.7413 10.0661L96.3409 12.9539C96.705 13.3752 96.9479 13.7308 96.9479 14.2639C96.9479 15.2188 96.0745 15.8398 95.1748 15.8398C94.3248 15.8398 93.7657 15.4634 93.3304 14.9525L89.6859 10.7319H86.6986V14.1303C86.6986 15.0857 85.8729 15.8398 84.8298 15.8398C83.7852 15.8398 82.9595 15.0857 82.9595 14.1303V1.87016Z" fill="#2D2E2E"/>
<path fill-rule="evenodd" clip-rule="evenodd" d="M110.377 3.31333H106.831C105.898 3.31333 105.131 2.60259 105.131 1.73599C105.131 0.87089 105.898 0.160156 106.831 0.160156H117.615C118.546 0.160156 119.315 0.87089 119.315 1.73599C119.315 2.60259 118.546 3.31333 117.615 3.31333H114.066V14.1297C114.066 15.0857 113.254 15.8398 112.223 15.8398C111.192 15.8398 110.377 15.0857 110.377 14.1297V3.31333Z" fill="#2D2E2E"/>
<path fill-rule="evenodd" clip-rule="evenodd" d="M141.325 8.04349V7.99972C141.325 3.68965 144.679 0.160156 149.489 0.160156C151.838 0.160156 153.427 0.76611 154.723 1.69817C155.082 1.95687 155.396 2.43348 155.396 3.01828C155.396 3.92771 154.635 4.64335 153.695 4.64335C153.226 4.64335 152.912 4.46973 152.667 4.31824C151.704 3.62571 150.697 3.23519 149.468 3.23519C146.828 3.23519 144.925 5.35751 144.925 7.95643V7.99972C144.925 10.5991 146.782 12.7642 149.468 12.7642C150.922 12.7642 151.883 12.3314 152.868 11.5734C153.136 11.3566 153.493 11.2051 153.896 11.2051C154.769 11.2051 155.508 11.8981 155.508 12.7431C155.508 13.263 155.239 13.6737 154.926 13.9339C153.515 15.1242 151.86 15.8398 149.356 15.8398C144.747 15.8398 141.325 12.3959 141.325 8.04349Z" fill="#2D2E2E"/>
<path fill-rule="evenodd" clip-rule="evenodd" d="M40.3367 14.5062L34.7607 2.63146C34.6381 2.36924 34.5396 2.10651 34.5396 1.82243C34.5396 0.88228 35.3749 0.160156 36.4321 0.160156C37.4143 0.160156 38.0521 0.66425 38.3481 1.34118L42.6454 11.2473L46.9936 1.23191C47.2392 0.6856 47.9032 0.160156 48.8111 0.160156C49.8443 0.160156 50.6795 0.85993 50.6795 1.77823C50.6795 2.04096 50.5805 2.32503 50.4825 2.5222L44.8556 14.5062C44.4634 15.3371 43.7507 15.8398 42.7203 15.8398H42.4747C41.442 15.8398 40.7294 15.3371 40.3367 14.5062Z" fill="#2D2E2E"/>
<path fill-rule="evenodd" clip-rule="evenodd" d="M60.7876 14.1152V1.8847C60.7876 0.92069 61.5491 0.160156 62.5123 0.160156H71.1963C72.0447 0.160156 72.7405 0.85404 72.7405 1.70563C72.7405 2.5562 72.0447 3.22872 71.1963 3.22872H64.2115V6.40971H70.1868C71.0382 6.40971 71.731 7.10411 71.731 7.95519C71.731 8.80525 71.0382 9.47877 70.1868 9.47877H64.2115V12.7702H71.3076C72.1565 12.7702 72.8518 13.4656 72.8518 14.3161C72.8518 15.1677 72.1565 15.8398 71.3076 15.8398H62.5123C61.5491 15.8398 60.7876 15.0782 60.7876 14.1152Z" fill="#2D2E2E"/>
<path fill-rule="evenodd" clip-rule="evenodd" d="M90.4878 7.71193C92.3092 7.71193 93.3538 6.82213 93.3538 5.51314V5.46875C93.3538 4.00237 92.2374 3.24675 90.414 3.24675H86.6986V7.71193H90.4878ZM82.9595 1.87016C82.9595 0.91428 83.7852 0.160156 84.8298 0.160156H90.7305C92.8923 0.160156 94.5678 0.71553 95.6842 1.73599C96.6318 2.60259 97.1431 3.82482 97.1431 5.28968V5.33457C97.1431 7.77802 95.8081 9.28876 93.7413 10.0661L96.3409 12.9539C96.705 13.3752 96.9479 13.7308 96.9479 14.2639C96.9479 15.2188 96.0745 15.8398 95.1748 15.8398C94.3248 15.8398 93.7657 15.4634 93.3304 14.9525L89.6859 10.7319H86.6986V14.1303C86.6986 15.0857 85.8729 15.8398 84.8298 15.8398C83.7852 15.8398 82.9595 15.0857 82.9595 14.1303V1.87016Z" fill="#2D2E2E"/>
<path fill-rule="evenodd" clip-rule="evenodd" d="M110.377 3.31333H106.831C105.898 3.31333 105.131 2.60259 105.131 1.73599C105.131 0.87089 105.898 0.160156 106.831 0.160156H117.615C118.546 0.160156 119.315 0.87089 119.315 1.73599C119.315 2.60259 118.546 3.31333 117.615 3.31333H114.066V14.1297C114.066 15.0857 113.254 15.8398 112.223 15.8398C111.192 15.8398 110.377 15.0857 110.377 14.1297V3.31333Z" fill="#2D2E2E"/>
<path fill-rule="evenodd" clip-rule="evenodd" d="M129.26 1.85566C129.26 0.90888 130.16 0.160156 131.298 0.160156C132.436 0.160156 133.336 0.90888 133.336 1.85566V14.1443C133.336 15.0921 132.436 15.8398 131.298 15.8398C130.16 15.8398 129.26 15.0921 129.26 14.1443V1.85566Z" fill="#2D2E2E"/>
<path fill-rule="evenodd" clip-rule="evenodd" d="M2.16591 1.69972H8.57684L5.15672 6.44544L2.16591 1.69972ZM17.9868 1.40556C17.5935 1.19418 17.0915 1.32216 16.8666 1.69081L9.62785 13.5394L6.08081 7.91177L10.2751 2.09098C10.5336 1.70195 10.5469 1.21104 10.3096 0.81023C10.0721 0.40911 9.62105 0.160156 9.13239 0.160156H1.64939C1.16682 0.160156 0.718522 0.404335 0.479606 0.7975C0.240693 1.19036 0.244766 1.67648 0.490126 2.06614L4.13931 7.8567L1.92801 10.9256C1.67417 11.2778 1.77292 11.7562 2.14826 11.9944C2.52394 12.2331 3.03435 12.1402 3.28785 11.7877L5.06374 9.32302L8.93213 15.4615C8.94303 15.4784 8.95829 15.4905 8.97012 15.5064C8.98408 15.5258 8.99935 15.5428 9.01564 15.5609C9.07606 15.628 9.14393 15.6873 9.22195 15.7302C9.22539 15.7325 9.22707 15.7357 9.23042 15.7376C9.23181 15.7382 9.23321 15.7382 9.23423 15.7389C9.28171 15.7643 9.33329 15.7809 9.38487 15.7968C9.46837 15.8225 9.55319 15.8398 9.638 15.8398C9.63837 15.8398 9.63763 15.8398 9.638 15.8398C9.638 15.8398 9.63902 15.8398 9.63939 15.8398C9.66723 15.8398 9.69432 15.8321 9.72216 15.8292C9.76461 15.8251 9.80809 15.8239 9.84914 15.8137C9.86851 15.8085 9.88647 15.7981 9.90574 15.7921C9.95537 15.7758 10.0045 15.7595 10.05 15.7347C10.0521 15.7337 10.0544 15.7334 10.0565 15.7325C10.0622 15.729 10.0649 15.7235 10.0707 15.7201C10.1454 15.6768 10.2102 15.6197 10.2676 15.5539C10.2839 15.5351 10.2995 15.5173 10.3141 15.4972C10.3253 15.4816 10.3405 15.4692 10.3507 15.4523L18.2909 2.45645C18.5162 2.08748 18.3798 1.61695 17.9868 1.40556Z" fill="#2D2E2E"/>
</svg>
