<svg width="115" height="20" viewBox="0 0 115 20" fill="none" xmlns="http://www.w3.org/2000/svg">
<path fill-rule="evenodd" clip-rule="evenodd" d="M25.3415 19.9324H30.3999V0.155287H25.3415V19.9324ZM58.7983 19.9379L63.8478 19.927V0.166179H58.7983V19.9379ZM0.920898 0.147111H5.99752L10.9471 11.5491H11.2922L16.3234 0.143481L21.5091 0.136219L12.8633 19.9342L9.64836 19.9451L0.920898 0.147111ZM34.3142 0.163463L39.3726 0.16981L44.304 11.5528H44.6764L49.6622 0.163463L54.8478 0.16981L46.2475 19.9324L43.0144 19.9424L34.3142 0.163463ZM70.3865 0.147111H73.9466C74.4007 0.782828 74.7912 1.35588 75.1908 1.87262H75.5359C80.5853 -1.96256 88.3228 0.440436 88.3228 6.94472L88.3137 19.9361H83.3915L83.3461 7.74574C83.1009 3.6926 77.0798 3.11409 75.9083 7.23626C75.5744 8.54309 75.4487 9.89438 75.5359 11.2404L75.545 19.946L70.3593 19.9361L70.3865 0.147111ZM103.989 0C109.756 0 114.46 4.48995 114.46 9.97437C114.397 12.691 113.26 15.272 111.297 17.151C109.334 19.0301 106.705 20.0538 103.989 19.9978V15.8475C105.499 15.8285 106.94 15.2154 108.001 14.141C109.062 13.0666 109.657 11.6174 109.657 10.1074C109.657 8.59745 109.062 7.14827 108.001 6.07386C106.94 4.99946 105.499 4.38636 103.989 4.36736V0ZM103.989 19.9978C101.272 20.0538 98.6438 19.0301 96.6808 17.151C94.7178 15.272 93.5802 12.691 93.5175 9.97437C93.5175 4.48995 98.2218 0 103.989 0V4.36917C102.479 4.38816 101.037 5.00128 99.9763 6.07569C98.9154 7.1501 98.3204 8.59928 98.3204 10.1093C98.3204 11.6192 98.9154 13.0684 99.9763 14.1428C101.037 15.2172 102.479 15.8303 103.989 15.8493V19.9996V19.9978Z" fill="#2D2E2E"/>
</svg>
