<svg width="44" height="44" viewBox="0 0 44 44" fill="none" xmlns="http://www.w3.org/2000/svg">
<path d="M21.9932 41.4077C11.3855 41.4077 2.66433 32.6077 2.66433 22C2.66433 19.8 3.05666 17.6788 3.76433 15.6365L15.0797 37.6365C15.2355 37.95 15.3932 38.1865 15.7855 38.1865C16.1797 38.1865 16.3355 37.95 16.4932 37.6365L21.7567 25.9288C21.8355 25.7712 21.9143 25.6923 21.9932 25.6923C22.1508 25.6923 22.1508 25.85 22.2297 25.9288L27.572 37.6365C27.7297 37.95 27.8855 38.1865 28.2797 38.1865C28.672 38.1865 28.8297 37.95 28.9855 37.6365L40.3008 15.6365C41.0067 17.6 41.4008 19.7212 41.4008 22C41.322 32.6077 32.6008 41.4077 21.9932 41.4077ZM21.9932 16.9712C21.8355 16.9712 21.8355 16.8135 21.7567 16.7365L15.7067 3.69233C19.7698 2.22854 24.2165 2.22854 28.2797 3.69233L22.2297 16.7365C22.1508 16.8135 22.1508 16.9712 21.9932 16.9712ZM15.6297 31.1135C15.472 31.1135 15.472 30.9577 15.3932 30.8788L5.49316 11.8617C7.222 9.03467 9.7355 6.677 12.6432 5.027L19.6355 20.1117C19.7932 20.427 19.9508 20.5058 20.1855 20.5058H23.8008C24.0355 20.5058 24.1932 20.427 24.3508 20.1117L31.2643 5.027C34.172 6.677 36.6855 9.03467 38.4143 11.8617L28.5932 30.8788C28.5143 31.0365 28.4355 31.1135 28.3567 31.1135C28.2008 31.1135 28.2008 30.9577 28.122 30.8788L24.3508 22.55C24.1932 22.2365 24.0355 22.1577 23.8008 22.1577H20.1855C19.9508 22.1577 19.7932 22.2365 19.6355 22.55L15.8643 30.8788C15.7855 30.9577 15.7855 31.1135 15.6297 31.1135ZM21.9932 44C34.172 44 43.9932 34.1788 43.9932 22C43.9932 9.82117 34.172 0 21.9932 0C9.81433 0 -0.00683594 9.82117 -0.00683594 22C-0.00683594 34.1788 9.81433 44 21.9932 44Z" fill="#2D2E2E"/>
</svg>
