<svg width="105" height="22" viewBox="0 0 105 22" fill="none" xmlns="http://www.w3.org/2000/svg">
<path d="M0.554688 21.0862L1.015 17.7015L11.6833 4.56924H3.39776L3.91223 0.913852H17.8568L17.3965 4.29847L6.59284 17.4308H15.8261L15.3116 21.0862H0.554688ZM22.3349 21.4111C21.1074 21.4111 20.0876 21.1403 19.2753 20.5988C18.481 20.0572 17.9214 19.2991 17.5965 18.3243C17.2896 17.3495 17.2264 16.2033 17.4069 14.8855L18.6254 6.30216H22.6869L21.4956 14.9397C21.4233 15.4993 21.4685 15.9957 21.6309 16.4289C21.7934 16.8441 22.0642 17.1691 22.4433 17.4037C22.8223 17.6383 23.2736 17.7557 23.7971 17.7557C24.3386 17.7557 24.826 17.6383 25.2593 17.4037C25.6925 17.1691 26.0535 16.8441 26.3423 16.4289C26.6491 15.9957 26.8387 15.4993 26.9109 14.9397L28.1023 6.30216H32.1639L30.106 21.0862H26.3153L26.6943 18.1619L26.8568 18.92C26.4055 19.8045 25.7827 20.4454 24.9885 20.8425C24.1942 21.2215 23.3097 21.4111 22.3349 21.4111ZM41.6031 21.4111C40.502 21.4111 39.5001 21.2215 38.5976 20.8425C37.713 20.4454 37.0181 19.8857 36.5127 19.1637L37.0001 18.3785L36.6481 21.0862H32.8031L35.6733 0.588928H39.7619L38.5976 9.11816L37.5416 8.2517C38.0831 7.51159 38.7781 6.95201 39.6265 6.57293C40.493 6.1758 41.4496 5.97724 42.4967 5.97724C43.8685 5.97724 45.087 6.30216 46.1521 6.95201C47.217 7.5838 48.0564 8.45029 48.6702 9.55139C49.302 10.6345 49.6179 11.862 49.6179 13.2339C49.6179 14.3531 49.4103 15.4091 48.9951 16.4019C48.5799 17.3946 48.0023 18.2702 47.2622 19.0283C46.5401 19.7684 45.6918 20.3551 44.717 20.7883C43.7602 21.2035 42.7223 21.4111 41.6031 21.4111ZM41.1699 17.7557C42.0002 17.7557 42.7313 17.5571 43.3631 17.16C43.9949 16.7629 44.4913 16.2214 44.8524 15.5354C45.2133 14.8494 45.3939 14.0823 45.3939 13.2339C45.3939 12.5299 45.2495 11.9071 44.9607 11.3655C44.6718 10.824 44.2656 10.3998 43.7422 10.0929C43.2367 9.78603 42.6321 9.63262 41.9281 9.63262C41.1157 9.63262 40.3936 9.84018 39.7619 10.2554C39.1481 10.6525 38.6698 11.194 38.3268 11.88C37.9838 12.566 37.8124 13.3331 37.8124 14.1815C37.8124 14.8855 37.9478 15.5083 38.2185 16.0499C38.5073 16.5914 38.9044 17.0156 39.4099 17.3225C39.9153 17.6113 40.5019 17.7557 41.1699 17.7557ZM50.7247 21.0862L53.5948 0.588928H57.6834L54.8133 21.0862H50.7247ZM57.514 21.0862L59.5718 6.30216H63.6604L61.6026 21.0862H57.514ZM59.7613 4.97539L60.33 0.913852H64.4186L63.85 4.97539H59.7613ZM64.3033 21.0862L66.3612 6.30216H70.1519L69.6916 9.74093L69.2855 9.17231C69.7548 8.01704 70.3866 7.1957 71.1809 6.70831C71.9751 6.22093 72.9228 5.97724 74.0239 5.97724C75.2514 5.97724 76.2894 6.29313 77.1378 6.92493C77.9861 7.53867 78.5367 8.36904 78.7895 9.41601L77.3273 9.52431C78.0132 8.24267 78.8617 7.33108 79.8726 6.78955C80.8834 6.24801 82.0026 5.97724 83.2301 5.97724C84.3312 5.97724 85.2699 6.22093 86.0458 6.70831C86.8226 7.1957 87.3912 7.87262 87.7517 8.73908C88.1308 9.58752 88.2391 10.5713 88.0766 11.6905L86.7769 21.0862H82.7156L83.907 12.4486C83.9972 11.871 83.9612 11.3746 83.7987 10.9594C83.6543 10.5442 83.4106 10.2193 83.0676 9.98462C82.7246 9.74998 82.2824 9.63262 81.7409 9.63262C81.2174 9.63262 80.739 9.74998 80.3058 9.98462C79.8906 10.2193 79.5476 10.5442 79.2769 10.9594C79.0241 11.3746 78.8526 11.871 78.7624 12.4486L77.571 21.0862H73.5095L74.7009 12.4486C74.7911 11.871 74.755 11.3746 74.5926 10.9594C74.4481 10.5442 74.2044 10.2193 73.8615 9.98462C73.5185 9.74998 73.0763 9.63262 72.5347 9.63262C72.0112 9.63262 71.5329 9.74998 71.0996 9.98462C70.6844 10.2193 70.3415 10.5442 70.0707 10.9594C69.818 11.3746 69.6465 11.871 69.5563 12.4486L68.3649 21.0862H64.3033ZM96.9502 21.4111C95.4517 21.4111 94.152 21.0952 93.0512 20.4634C91.9503 19.8135 91.1016 18.938 90.5059 17.8369C89.928 16.7358 89.6395 15.5174 89.6395 14.1815C89.6395 13.0443 89.8383 11.9883 90.2352 11.0135C90.632 10.0208 91.1922 9.14524 91.9139 8.38708C92.6357 7.62893 93.4751 7.04227 94.4321 6.62708C95.3891 6.19385 96.4265 5.97724 97.5459 5.97724C99.0445 5.97724 100.308 6.27508 101.337 6.87078C102.366 7.44842 103.142 8.24267 103.665 9.25354C104.207 10.2644 104.478 11.4106 104.478 12.6923C104.478 13.0353 104.451 13.3783 104.396 13.7212C104.342 14.0642 104.27 14.4343 104.18 14.8314H93.0782L93.2948 11.8529H102.068L100.037 13.2068C100.271 12.4486 100.317 11.7717 100.172 11.176C100.028 10.5803 99.7214 10.111 99.2518 9.76801C98.8008 9.40695 98.2228 9.22647 97.5189 9.22647C96.5982 9.22647 95.8672 9.46111 95.3256 9.93047C94.7841 10.3998 94.3872 11.0226 94.1342 11.7988C93.8998 12.575 93.7822 13.4324 93.7822 14.3711C93.7822 15.1112 93.9083 15.752 94.1613 16.2935C94.4143 16.8171 94.7841 17.2142 95.2715 17.4849C95.7588 17.7557 96.3452 17.8911 97.0315 17.8911C97.7719 17.8911 98.4217 17.7377 98.981 17.4308C99.5403 17.1239 99.9735 16.7177 100.281 16.2123L103.476 17.864C103.133 18.586 102.636 19.2179 101.987 19.7594C101.337 20.2829 100.579 20.6891 99.7121 20.9779C98.8634 21.2666 97.9428 21.4111 96.9502 21.4111Z" fill="#2D2E2E"/>
</svg>
