<?xml version="1.0" standalone="no"?>
<!DOCTYPE svg PUBLIC "-//W3C//DTD SVG 1.1//EN" "http://www.w3.org/Graphics/SVG/1.1/DTD/svg11.dtd">
<svg width="100%" height="100%" viewBox="0 0 601 287" version="1.1" xmlns="http://www.w3.org/2000/svg" xmlns:xlink="http://www.w3.org/1999/xlink" xml:space="preserve" style="fill-rule:evenodd;clip-rule:evenodd;stroke-linejoin:round;stroke-miterlimit:1.41421;">
    <g>
        <path d="M21.9094,280.678L10.748,280.678L8.59843,286.093L0,286.093L11.9882,254.924L20.8346,254.924L32.5748,286.093L23.935,286.093L21.9094,280.678ZM19.7185,274.477L16.4114,264.556L16.3287,264.556L12.9803,274.477L19.7185,274.477Z" style="fill:rgb(51,51,51);fill-rule:nonzero;"/>
        <path d="M70.7303,280.678L59.5689,280.678L57.4193,286.093L48.8209,286.093L60.8091,254.924L69.6555,254.924L81.3957,286.093L72.7559,286.093L70.7303,280.678ZM68.5394,274.477L65.2323,264.556L65.1496,264.556L61.8012,274.477L68.5394,274.477Z" style="fill:rgb(51,51,51);fill-rule:nonzero;"/>
        <path d="M108.638,267.78L118.435,254.924L128.48,254.924L116.079,269.682L129.596,286.093L119.096,286.093L108.638,272.575L108.555,272.575L108.555,286.093L100.453,286.093L100.453,254.924L108.555,254.924L108.555,267.78L108.638,267.78Z" style="fill:rgb(51,51,51);fill-rule:nonzero;"/>
        <path d="M155.309,254.924L163.411,254.924L163.411,275.965C163.411,279.355 162.53,282.028 160.766,283.985C159.002,285.942 156.439,286.92 153.077,286.92C149.715,286.92 147.041,285.39 145.057,282.331L149.728,277.412C151.024,279.176 152.112,280.058 152.994,280.058C153.38,280.058 153.718,279.996 154.007,279.872C154.296,279.748 154.517,279.534 154.668,279.231C154.82,278.928 154.944,278.666 155.04,278.445C155.137,278.225 155.206,277.881 155.247,277.412C155.288,276.944 155.309,276.62 155.309,276.441C155.309,276.261 155.309,275.938 155.309,275.469L155.309,254.924Z" style="fill:rgb(51,51,51);fill-rule:nonzero;"/>
        <path d="M201.856,274.477L198.508,265.217L194.994,274.477L201.856,274.477ZM206.073,286.093L204.047,280.678L192.762,280.678L190.819,286.093L182.262,286.093L194.291,254.924L213.39,254.924L215.911,261.786L205.659,261.786L207.561,266.995L217.772,266.995L220.376,273.857L210.083,273.857L212.108,279.231L222.36,279.231L224.841,286.093L206.073,286.093Z" style="fill:rgb(51,51,51);fill-rule:nonzero;"/>
        <path d="M260.144,273.32L269.941,286.093L259.854,286.093L252.207,274.105L252.124,274.105L252.124,286.093L244.022,286.093L244.022,254.924L256.134,254.924C259.386,254.924 262.004,255.723 263.988,257.321C265.972,258.92 266.965,261.318 266.965,264.514C266.965,266.747 266.365,268.676 265.166,270.302C263.968,271.928 262.293,272.934 260.144,273.32ZM252.124,261.125L252.124,268.896L252.909,268.896C256.657,268.896 258.531,267.601 258.531,265.01C258.531,262.42 256.657,261.125 252.909,261.125L252.124,261.125Z" style="fill:rgb(51,51,51);fill-rule:nonzero;"/>
        <path d="M339.72,256.66L336.496,262.944C334.843,261.566 333.051,260.877 331.122,260.877C330.268,260.877 329.475,261.111 328.745,261.579C328.015,262.048 327.65,262.682 327.65,263.481C327.65,264.032 327.877,264.528 328.332,264.969C328.786,265.41 329.214,265.713 329.613,265.879C330.013,266.044 330.557,266.237 331.246,266.457L333.313,267.077C335.738,267.794 337.626,268.807 338.976,270.116C340.327,271.425 341.002,273.251 341.002,275.593C341.002,279.369 339.927,282.166 337.778,283.985C335.463,285.942 332.514,286.92 328.931,286.92C325.018,286.92 321.366,285.735 317.976,283.365L321.449,276.833C323.902,278.983 326.299,280.058 328.642,280.058C329.689,280.058 330.605,279.789 331.391,279.252C332.176,278.714 332.569,277.936 332.569,276.916C332.569,275.51 331.26,274.422 328.642,273.65C328.559,273.623 328.228,273.526 327.65,273.361C326.161,272.947 324.99,272.562 324.136,272.203C323.281,271.845 322.427,271.342 321.573,270.695C320.719,270.047 320.112,269.227 319.754,268.235C319.396,267.243 319.217,266.016 319.217,264.556C319.217,261.414 320.222,258.885 322.234,256.97C324.246,255.055 326.823,254.097 329.965,254.097C331.535,254.097 333.21,254.331 334.987,254.8C336.765,255.268 338.343,255.888 339.72,256.66Z" style="fill:rgb(51,51,51);fill-rule:nonzero;"/>
        <path d="M373.783,261.786L373.783,286.093L365.681,286.093L365.681,261.786L358.984,261.786L358.984,254.924L380.48,254.924L380.48,261.786L373.783,261.786Z" style="fill:rgb(51,51,51);fill-rule:nonzero;"/>
        <path d="M418.884,254.924L426.986,254.924L426.986,272.451C426.986,274.987 426.786,277.116 426.387,278.838C425.987,280.561 425.098,282.097 423.72,283.447C421.378,285.762 417.933,286.92 413.386,286.92C408.839,286.92 405.394,285.762 403.051,283.447C401.673,282.097 400.784,280.561 400.385,278.838C399.985,277.116 399.785,274.987 399.785,272.451L399.785,254.924L407.888,254.924L407.888,271.335C407.888,272.327 407.908,273.154 407.95,273.816C407.991,274.477 408.115,275.221 408.322,276.048C408.529,276.875 408.818,277.536 409.19,278.032C409.562,278.528 410.106,278.948 410.823,279.293C411.539,279.637 412.394,279.81 413.386,279.81C414.378,279.81 415.232,279.637 415.949,279.293C416.665,278.948 417.21,278.528 417.582,278.032C417.954,277.536 418.243,276.875 418.45,276.048C418.656,275.221 418.781,274.477 418.822,273.816C418.863,273.154 418.884,272.327 418.884,271.335L418.884,254.924Z" style="fill:rgb(51,51,51);fill-rule:nonzero;"/>
        <path d="M448.648,286.093L448.648,254.924L460.14,254.924C464.494,254.924 468.221,256.433 471.322,259.45C474.422,262.468 475.972,266.154 475.972,270.508C475.972,274.863 474.422,278.549 471.322,281.567C468.221,284.584 464.494,286.093 460.14,286.093L448.648,286.093ZM456.75,261.786L456.75,279.231L458.569,279.231C461.159,279.231 463.302,278.501 464.997,277.04C466.692,275.579 467.539,273.402 467.539,270.508C467.539,267.78 466.726,265.644 465.1,264.101C463.474,262.558 461.325,261.786 458.652,261.786L456.75,261.786Z" style="fill:rgb(51,51,51);fill-rule:nonzero;"/>
        <rect x="496.27" y="254.924" width="8.10236" height="31.1693" style="fill:rgb(51,51,51);fill-rule:nonzero;"/>
        <path d="M541.866,253.89C544.87,253.89 547.681,254.559 550.299,255.895C552.917,257.232 555.039,259.14 556.665,261.621C558.291,264.101 559.104,266.871 559.104,269.93C559.104,274.973 557.485,279.1 554.247,282.311C551.009,285.521 546.882,287.127 541.866,287.127C536.85,287.127 532.723,285.521 529.485,282.311C526.247,279.1 524.628,274.973 524.628,269.93C524.628,266.871 525.441,264.101 527.067,261.621C528.693,259.14 530.815,257.232 533.433,255.895C536.051,254.559 538.862,253.89 541.866,253.89ZM541.866,261.745C539.469,261.745 537.402,262.571 535.665,264.225C533.929,265.879 533.061,267.794 533.061,269.971C533.061,272.617 533.915,274.828 535.624,276.606C537.333,278.383 539.413,279.272 541.866,279.272C544.319,279.272 546.4,278.383 548.108,276.606C549.817,274.828 550.671,272.617 550.671,269.971C550.671,267.794 549.803,265.879 548.067,264.225C546.331,262.571 544.264,261.745 541.866,261.745Z" style="fill:rgb(51,51,51);fill-rule:nonzero;"/>
        <path d="M599.74,256.66L596.516,262.944C594.862,261.566 593.071,260.877 591.142,260.877C590.287,260.877 589.495,261.111 588.765,261.579C588.034,262.048 587.669,262.682 587.669,263.481C587.669,264.032 587.897,264.528 588.351,264.969C588.806,265.41 589.233,265.713 589.633,265.879C590.032,266.044 590.577,266.237 591.266,266.457L593.333,267.077C595.758,267.794 597.646,268.807 598.996,270.116C600.346,271.425 601.022,273.251 601.022,275.593C601.022,279.369 599.947,282.166 597.797,283.985C595.482,285.942 592.533,286.92 588.951,286.92C585.037,286.92 581.386,285.735 577.996,283.365L581.469,276.833C583.921,278.983 586.319,280.058 588.661,280.058C589.709,280.058 590.625,279.789 591.41,279.252C592.196,278.714 592.589,277.936 592.589,276.916C592.589,275.51 591.28,274.422 588.661,273.65C588.579,273.623 588.248,273.526 587.669,273.361C586.181,272.947 585.01,272.562 584.156,272.203C583.301,271.845 582.447,271.342 581.593,270.695C580.738,270.047 580.132,269.227 579.774,268.235C579.415,267.243 579.236,266.016 579.236,264.556C579.236,261.414 580.242,258.885 582.254,256.97C584.266,255.055 586.843,254.097 589.984,254.097C591.555,254.097 593.229,254.331 595.007,254.8C596.784,255.268 598.362,255.888 599.74,256.66Z" style="fill:rgb(51,51,51);fill-rule:nonzero;"/>
        <circle cx="309.461" cy="101.271" r="101.271" style="fill:rgb(51,51,51);"/>
        <g>
            <clipPath id="tag1">
                <circle cx="309.461" cy="101.271" r="75.8922"/>
            </clipPath>
            <g clip-path="url(#tag1)">
                <path d="M359.794,135.652L309.461,48.8751L259.127,135.652L359.794,135.652ZM317.299,87.9316L297.084,122.862L281.406,122.862L309.461,74.4544L317.299,87.9316ZM324.726,100.859L337.515,122.862L311.936,122.862L324.726,100.859Z" style="fill:white;fill-rule:nonzero;"/>
            </g>
        </g>
    </g>
</svg>
