<?xml version="1.0" standalone="no"?>
<!DOCTYPE svg PUBLIC "-//W3C//DTD SVG 1.1//EN" "http://www.w3.org/Graphics/SVG/1.1/DTD/svg11.dtd">
<svg width="100%" height="100%" viewBox="0 0 597 286" version="1.1" xmlns="http://www.w3.org/2000/svg" xmlns:xlink="http://www.w3.org/1999/xlink" xml:space="preserve" style="fill-rule:evenodd;clip-rule:evenodd;stroke-linejoin:round;stroke-miterlimit:1.41421;">
    <g>
        <path d="M19.8012,279.52L8.97047,279.52L6.40748,286.093L0,286.093L12.1535,254.097L16.8661,254.097L28.689,286.093L22.1988,286.093L19.8012,279.52ZM18.1063,274.56L14.2205,263.233L14.1378,263.233L10.7067,274.56L18.1063,274.56Z" style="fill:rgb(85,186,131);fill-rule:nonzero;"/>
        <path d="M68.4154,279.52L57.5846,279.52L55.0217,286.093L48.6142,286.093L60.7677,254.097L65.4803,254.097L77.3031,286.093L70.813,286.093L68.4154,279.52ZM66.7205,274.56L62.8346,263.233L62.752,263.233L59.3209,274.56L66.7205,274.56Z" style="fill:rgb(85,186,131);fill-rule:nonzero;"/>
        <path d="M105.992,268.07L115.624,254.924L123.106,254.924L111.283,269.31L123.768,286.093L115.955,286.093L105.992,272.079L105.909,272.079L105.909,286.093L99.8327,286.093L99.8327,254.924L105.909,254.924L105.909,268.07L105.992,268.07Z" style="fill:rgb(85,186,131);fill-rule:nonzero;"/>
        <path d="M157.913,254.924L157.913,275.51C157.913,276.695 157.886,277.639 157.831,278.342C157.776,279.045 157.61,279.865 157.335,280.802C157.059,281.739 156.646,282.607 156.094,283.406C154.496,285.749 152.167,286.92 149.108,286.92C148.033,286.92 146.945,286.644 145.843,286.093C144.74,285.542 143.789,284.839 142.99,283.985L146.876,279.52C147.041,280.016 147.358,280.478 147.827,280.905C148.295,281.332 148.764,281.546 149.232,281.546C149.563,281.546 149.859,281.491 150.121,281.381C150.383,281.27 150.596,281.105 150.762,280.884C150.927,280.664 151.079,280.43 151.217,280.182C151.354,279.934 151.465,279.624 151.547,279.252C151.63,278.88 151.692,278.556 151.733,278.28C151.775,278.005 151.802,277.646 151.816,277.205C151.83,276.764 151.837,276.427 151.837,276.193L151.837,274.477L151.837,254.924L157.913,254.924Z" style="fill:rgb(85,186,131);fill-rule:nonzero;"/>
        <path d="M199.955,279.52L189.165,279.52L186.726,286.093L180.278,286.093L192.39,254.924L207.768,254.924L209.669,260.215L199.335,260.215L201.856,267.119L212.026,267.119L213.927,272.41L203.758,272.41L206.858,280.802L217.193,280.802L219.053,286.093L202.394,286.093L199.955,279.52ZM198.301,274.56L194.457,263.977L194.374,263.977L190.943,274.56L198.301,274.56Z" style="fill:rgb(85,186,131);fill-rule:nonzero;"/>
        <path d="M253.902,272.947L262.707,286.093L255.348,286.093L247.783,273.526L247.701,273.526L247.701,286.093L241.624,286.093L241.624,254.924L249.85,254.924C253.102,254.924 255.652,255.689 257.498,257.218C259.344,258.748 260.268,261.111 260.268,264.308C260.268,266.402 259.703,268.283 258.573,269.95C257.443,271.618 255.886,272.617 253.902,272.947ZM247.701,259.884L247.701,269.268L248.486,269.268C250.333,269.268 251.745,268.917 252.723,268.214C253.702,267.511 254.191,266.264 254.191,264.473C254.191,262.682 253.702,261.469 252.723,260.835C251.745,260.201 250.346,259.884 248.528,259.884L247.701,259.884Z" style="fill:rgb(85,186,131);fill-rule:nonzero;"/>
        <path d="M335.504,257.57L332.652,261.786C331.384,260.077 329.827,259.223 327.98,259.223C326.988,259.223 326.106,259.561 325.335,260.236C324.563,260.911 324.177,261.745 324.177,262.737C324.177,263.426 324.405,264.039 324.859,264.576C325.314,265.114 325.906,265.555 326.637,265.899C327.367,266.244 328.173,266.595 329.055,266.953C329.937,267.312 330.812,267.732 331.68,268.214C332.548,268.696 333.347,269.261 334.078,269.909C334.808,270.557 335.401,271.425 335.855,272.513C336.31,273.602 336.537,274.849 336.537,276.255C336.537,279.424 335.614,281.994 333.768,283.964C331.921,285.935 329.427,286.92 326.285,286.92C322.317,286.92 319.12,284.894 316.695,280.843L320.622,276.999C321.063,278.266 321.8,279.341 322.834,280.223C323.867,281.105 325.004,281.546 326.244,281.546C327.457,281.546 328.428,281.105 329.158,280.223C329.889,279.341 330.254,278.28 330.254,277.04C330.254,275.276 329.248,273.912 327.236,272.947C326.906,272.782 326.106,272.451 324.839,271.955C322.551,271.018 320.822,269.923 319.651,268.669C318.479,267.415 317.894,265.672 317.894,263.44C317.894,260.821 318.762,258.61 320.498,256.805C322.234,255 324.398,254.097 326.988,254.097C328.421,254.097 329.971,254.421 331.639,255.069C333.306,255.716 334.594,256.55 335.504,257.57Z" style="fill:rgb(85,186,131);fill-rule:nonzero;"/>
        <path d="M370.518,260.215L370.518,286.093L364.441,286.093L364.441,260.215L358.157,260.215L358.157,254.924L376.801,254.924L376.801,260.215L370.518,260.215Z" style="fill:rgb(85,186,131);fill-rule:nonzero;"/>
        <path d="M399.537,273.568L399.537,254.924L405.614,254.924L405.614,272.369C405.614,273.306 405.635,274.126 405.676,274.828C405.718,275.531 405.848,276.344 406.069,277.267C406.289,278.191 406.579,278.942 406.937,279.52C407.295,280.099 407.833,280.595 408.549,281.008C409.266,281.422 410.12,281.629 411.112,281.629C412.104,281.629 412.959,281.422 413.675,281.008C414.392,280.595 414.929,280.099 415.287,279.52C415.646,278.942 415.935,278.191 416.156,277.267C416.376,276.344 416.507,275.531 416.548,274.828C416.59,274.126 416.61,273.306 416.61,272.369L416.61,254.924L422.687,254.924L422.687,273.568C422.687,277.646 421.75,280.891 419.876,283.303C418.002,285.714 415.081,286.92 411.112,286.92C407.144,286.92 404.222,285.714 402.348,283.303C400.474,280.891 399.537,277.646 399.537,273.568Z" style="fill:rgb(85,186,131);fill-rule:nonzero;"/>
        <path d="M447.656,286.093L447.656,254.924L456.337,254.924C460.801,254.924 464.425,256.405 467.209,259.368C469.992,262.33 471.384,266.058 471.384,270.55C471.384,274.987 469.971,278.687 467.147,281.649C464.322,284.612 460.705,286.093 456.295,286.093L447.656,286.093ZM453.732,260.215L453.732,280.802L454.724,280.802C461.642,280.802 465.1,277.371 465.1,270.508C465.1,263.646 461.642,260.215 454.724,260.215L453.732,260.215Z" style="fill:rgb(85,186,131);fill-rule:nonzero;"/>
        <rect x="495.03" y="254.924" width="6.07677" height="31.1693" style="fill:rgb(85,186,131);fill-rule:nonzero;"/>
        <path d="M540.13,286.92C535.665,286.92 531.979,285.315 529.072,282.104C526.164,278.893 524.711,275.014 524.711,270.467C524.711,266.003 526.171,262.158 529.093,258.934C532.014,255.709 535.693,254.097 540.13,254.097C544.567,254.097 548.246,255.709 551.167,258.934C554.089,262.158 555.549,266.003 555.549,270.467C555.549,275.014 554.095,278.893 551.188,282.104C548.281,285.315 544.594,286.92 540.13,286.92ZM540.13,260.091C537.539,260.091 535.369,261.125 533.619,263.192C531.869,265.258 530.994,267.601 530.994,270.219C530.994,272.727 531.904,275.138 533.722,277.453C535.541,279.768 537.677,280.926 540.13,280.926C542.583,280.926 544.719,279.768 546.537,277.453C548.356,275.138 549.266,272.727 549.266,270.219C549.266,267.601 548.391,265.258 546.641,263.192C544.891,261.125 542.72,260.091 540.13,260.091Z" style="fill:rgb(85,186,131);fill-rule:nonzero;"/>
        <path d="M596.722,257.57L593.87,261.786C592.602,260.077 591.045,259.223 589.199,259.223C588.207,259.223 587.325,259.561 586.553,260.236C585.781,260.911 585.396,261.745 585.396,262.737C585.396,263.426 585.623,264.039 586.078,264.576C586.532,265.114 587.125,265.555 587.855,265.899C588.586,266.244 589.392,266.595 590.274,266.953C591.156,267.312 592.031,267.732 592.899,268.214C593.767,268.696 594.566,269.261 595.296,269.909C596.027,270.557 596.619,271.425 597.074,272.513C597.529,273.602 597.756,274.849 597.756,276.255C597.756,279.424 596.833,281.994 594.986,283.964C593.14,285.935 590.646,286.92 587.504,286.92C583.535,286.92 580.339,284.894 577.913,280.843L581.841,276.999C582.281,278.266 583.019,279.341 584.052,280.223C585.086,281.105 586.222,281.546 587.463,281.546C588.675,281.546 589.647,281.105 590.377,280.223C591.107,279.341 591.472,278.28 591.472,277.04C591.472,275.276 590.467,273.912 588.455,272.947C588.124,272.782 587.325,272.451 586.057,271.955C583.77,271.018 582.04,269.923 580.869,268.669C579.698,267.415 579.112,265.672 579.112,263.44C579.112,260.821 579.98,258.61 581.717,256.805C583.453,255 585.616,254.097 588.207,254.097C589.64,254.097 591.19,254.421 592.857,255.069C594.525,255.716 595.813,256.55 596.722,257.57Z" style="fill:rgb(85,186,131);fill-rule:nonzero;"/>
        <circle cx="309.874" cy="101.271" r="101.271" style="fill:rgb(85,186,131);"/>
        <g>
            <clipPath id="tag1">
                <circle cx="309.874" cy="101.271" r="75.8922"/>
            </clipPath>
            <g clip-path="url(#tag1)">
                <path d="M360.207,135.652L309.874,48.8751L259.541,135.652L360.207,135.652ZM317.713,87.9316L297.497,122.862L281.819,122.862L309.874,74.4544L317.713,87.9316ZM325.139,100.859L337.929,122.862L312.349,122.862L325.139,100.859Z" style="fill:white;fill-rule:nonzero;"/>
            </g>
        </g>
    </g>
</svg>
