<?xml version="1.0" standalone="no"?>
<!DOCTYPE svg PUBLIC "-//W3C//DTD SVG 1.1//EN" "http://www.w3.org/Graphics/SVG/1.1/DTD/svg11.dtd">
<svg width="100%" height="100%" viewBox="0 0 737 202" version="1.1" xmlns="http://www.w3.org/2000/svg" xmlns:xlink="http://www.w3.org/1999/xlink" xml:space="preserve" style="fill-rule:evenodd;clip-rule:evenodd;stroke-linejoin:round;stroke-miterlimit:1.41421;">
    <g>
        <g>
            <path d="M308.667,116.294L301.067,116.294C299.355,116.294 298.253,115.424 297.818,114.176L295.323,106.808L279.252,106.808L276.757,114.176C276.38,115.25 275.19,116.294 273.566,116.294L265.907,116.294L282.269,74.0267L292.306,74.0267L308.667,116.294ZM281.514,100.135L293.06,100.135L289.173,88.5606C288.68,87.0811 287.954,85.0504 287.287,82.7296C286.678,85.0794 285.982,87.1391 285.402,88.6186L281.514,100.135Z" style="fill:white;fill-rule:nonzero;"/>
            <path d="M357.23,116.294L349.629,116.294C347.918,116.294 346.815,115.424 346.38,114.176L343.885,106.808L327.814,106.808L325.319,114.176C324.942,115.25 323.753,116.294 322.128,116.294L314.469,116.294L330.831,74.0267L340.868,74.0267L357.23,116.294ZM330.077,100.135L341.623,100.135L337.735,88.5606C337.242,87.0811 336.517,85.0504 335.85,82.7296C335.24,85.0794 334.544,87.1391 333.964,88.6186L330.077,100.135Z" style="fill:white;fill-rule:nonzero;"/>
            <path d="M376.26,74.0267L366.455,74.0267L366.455,116.294L376.26,116.294L376.26,98.3079L378.639,98.3079C380.467,98.3079 381.424,98.714 382.12,99.7874L391.693,114.495C392.477,115.656 393.289,116.294 395.523,116.294L404.284,116.294L391.519,96.6833C390.504,95.0878 389.315,94.2175 387.835,93.6663C388.85,93.1151 389.808,92.3609 390.707,91.1134L403.239,74.0267L394.71,74.0267C392.767,74.0267 391.519,74.4618 390.475,75.9704L380.96,89.779C380.322,90.6783 379.277,91.1425 377.827,91.1425L376.26,91.1425L376.26,74.0267Z" style="fill:white;fill-rule:nonzero;"/>
            <path d="M431.669,74.0267L421.863,74.0267L421.863,101.18C421.863,106.982 420.036,108.925 416.236,108.925C414.872,108.925 413.944,108.606 413.277,108.606C412,108.606 411.275,109.274 411.188,110.289L410.666,116.004C412.987,116.555 415.075,116.758 417.28,116.758C426.998,116.758 431.669,110.376 431.669,100.977L431.669,74.0267Z" style="fill:white;fill-rule:nonzero;"/>
            <path d="M482.32,116.294L474.719,116.294C473.008,116.294 471.905,115.424 471.47,114.176L468.975,106.808L452.904,106.808L450.409,114.176C450.032,115.25 448.843,116.294 447.218,116.294L439.559,116.294L455.921,74.0267L465.958,74.0267L482.32,116.294ZM455.167,100.135L466.713,100.135L462.825,88.5606C462.332,87.0811 461.607,85.0504 460.94,82.7296C460.33,85.0794 459.634,87.1391 459.054,88.6186L455.167,100.135Z" style="fill:white;fill-rule:nonzero;"/>
            <path d="M491.545,74.0267L491.545,116.294L518.756,116.294L518.756,108.751L501.408,108.751L501.408,98.685L514.695,98.685L514.695,91.4326L501.408,91.4326L501.408,81.5692L518.756,81.5692L518.756,74.0267L491.545,74.0267Z" style="fill:white;fill-rule:nonzero;"/>
            <path d="M542.428,100.658C543.937,100.658 544.662,101.093 545.271,102.166L552.291,114.437C553.017,115.685 554.177,116.294 555.831,116.294L564.708,116.294L555.715,101.586C554.873,100.194 553.684,99.2652 552.378,98.598C557.861,96.5093 560.878,91.9837 560.878,86.5589C560.878,79.3645 556.121,74.0267 543.879,74.0267L530.128,74.0267L530.128,116.294L539.933,116.294L539.933,100.658L542.428,100.658ZM539.933,81.3662L543.879,81.3662C548.955,81.3662 551.305,83.5709 551.305,87.2842C551.305,90.9974 549.216,93.8984 543.879,93.8984L539.933,93.8984L539.933,81.3662Z" style="fill:white;fill-rule:nonzero;"/>
            <path d="M597.082,113.77L616.548,113.77L616.548,116.294L594.123,116.294L594.123,75.2451L597.082,75.2451L597.082,113.77Z" style="fill:white;fill-rule:nonzero;"/>
            <path d="M660.498,116.294L658.206,116.294C657.655,116.294 657.336,115.975 657.133,115.511L652.288,103.588L632.126,103.588L627.311,115.511C627.166,115.946 626.759,116.294 626.208,116.294L623.945,116.294L640.742,75.2451L643.701,75.2451L660.498,116.294ZM633.025,101.383L651.418,101.383L643.034,80.6409C642.773,79.9737 642.483,79.1324 642.222,78.2041C641.96,79.1324 641.67,79.9737 641.409,80.6699L633.025,101.383Z" style="fill:white;fill-rule:nonzero;"/>
            <path d="M686.113,116.294C694.874,116.294 699.951,112.058 699.951,105.067C699.951,99.6133 696.354,96.2192 689.885,95.2618C695.193,93.9564 698.268,90.0111 698.268,85.6886C698.268,79.0744 693.946,75.2451 684.605,75.2451L672.798,75.2451L672.798,116.294L686.113,116.294ZM686.084,96.6253C692.96,96.6253 696.992,99.8164 696.992,105.009C696.992,110.666 693.279,113.915 686.055,113.915L675.757,113.915L675.757,96.6253L686.084,96.6253ZM675.757,77.5949L684.605,77.5949C691.915,77.5949 695.338,80.4669 695.338,86.0077C695.338,90.2432 692.205,94.4496 684.663,94.4496L675.757,94.4496L675.757,77.5949Z" style="fill:white;fill-rule:nonzero;"/>
            <path d="M736.329,78.9003C733.544,76.1154 730.237,74.781 725.973,74.781C718.372,74.781 714.108,79.8867 714.108,85.3695C714.108,99.4102 734.705,93.1731 734.705,104.748C734.705,110.115 730.904,114.292 724.406,114.292C717.357,114.292 714.949,109.68 713.847,109.68C713.528,109.68 713.266,109.825 713.034,110.115L712.222,111.391C715.152,114.727 718.923,116.758 724.348,116.758C732.674,116.758 737.49,111.217 737.49,104.313C737.49,90.9104 716.893,96.3062 716.893,85.2245C716.893,80.931 720.084,77.2468 726.002,77.2468C731.949,77.2468 733.892,80.728 734.879,80.728C735.198,80.728 735.459,80.5539 735.633,80.2348L736.329,78.9003Z" style="fill:white;fill-rule:nonzero;"/>
        </g>
        <circle cx="101.271" cy="101.271" r="101.271" style="fill:rgb(216,84,88);"/>
        <g>
            <clipPath id="tag1">
                <circle cx="101.271" cy="101.271" r="75.8922"/>
            </clipPath>
            <g clip-path="url(#tag1)">
                <path d="M151.605,135.652L101.271,48.8751L50.9379,135.652L151.605,135.652ZM109.11,87.9316L88.8943,122.862L73.2167,122.862L101.271,74.4544L109.11,87.9316ZM116.536,100.859L129.326,122.862L103.747,122.862L116.536,100.859Z" style="fill:white;fill-rule:nonzero;"/>
            </g>
        </g>
    </g>
</svg>
