<?xml version="1.0" standalone="no"?>
<!DOCTYPE svg PUBLIC "-//W3C//DTD SVG 1.1//EN" "http://www.w3.org/Graphics/SVG/1.1/DTD/svg11.dtd">
<svg width="100%" height="100%" viewBox="0 0 512 311" version="1.1" xmlns="http://www.w3.org/2000/svg" xmlns:xlink="http://www.w3.org/1999/xlink" xml:space="preserve" style="fill-rule:evenodd;clip-rule:evenodd;stroke-linecap:round;stroke-linejoin:round;stroke-miterlimit:1.41421;">
    <g>
        <path d="M19.8012,303.919L8.97047,303.919L6.40748,310.492L0,310.492L12.1535,278.495L16.8661,278.495L28.689,310.492L22.1988,310.492L19.8012,303.919ZM18.1063,298.958L14.2205,287.631L14.1378,287.631L10.7067,298.958L18.1063,298.958Z" style="fill:rgb(85,85,85);fill-rule:nonzero;"/>
        <path d="M60.1476,303.919L49.3169,303.919L46.7539,310.492L40.3465,310.492L52.5,278.495L57.2126,278.495L69.0354,310.492L62.5453,310.492L60.1476,303.919ZM58.4528,298.958L54.5669,287.631L54.4843,287.631L51.0531,298.958L58.4528,298.958Z" style="fill:rgb(85,85,85);fill-rule:nonzero;"/>
        <path d="M89.4567,292.468L99.0886,279.322L106.571,279.322L94.748,293.708L107.232,310.492L99.4193,310.492L89.4567,296.478L89.374,296.478L89.374,310.492L83.2972,310.492L83.2972,279.322L89.374,279.322L89.374,292.468L89.4567,292.468Z" style="fill:rgb(85,85,85);fill-rule:nonzero;"/>
        <path d="M133.11,279.322L133.11,299.909C133.11,301.094 133.083,302.038 133.028,302.741C132.972,303.443 132.807,304.263 132.531,305.2C132.256,306.137 131.843,307.005 131.291,307.804C129.693,310.147 127.364,311.318 124.305,311.318C123.23,311.318 122.142,311.043 121.039,310.492C119.937,309.94 118.986,309.238 118.187,308.383L122.073,303.919C122.238,304.415 122.555,304.876 123.024,305.304C123.492,305.731 123.961,305.944 124.429,305.944C124.76,305.944 125.056,305.889 125.318,305.779C125.58,305.669 125.793,305.503 125.959,305.283C126.124,305.062 126.276,304.828 126.413,304.58C126.551,304.332 126.661,304.022 126.744,303.65C126.827,303.278 126.889,302.954 126.93,302.679C126.971,302.403 126.999,302.045 127.013,301.604C127.027,301.163 127.033,300.825 127.033,300.591L127.033,298.875L127.033,279.322L133.11,279.322Z" style="fill:rgb(85,85,85);fill-rule:nonzero;"/>
        <path d="M167.008,303.919L156.177,303.919L153.614,310.492L147.207,310.492L159.36,278.495L164.073,278.495L175.896,310.492L169.406,310.492L167.008,303.919ZM165.313,298.958L161.427,287.631L161.344,287.631L157.913,298.958L165.313,298.958Z" style="fill:rgb(85,85,85);fill-rule:nonzero;"/>
        <path d="M206.28,284.614L196.234,284.614L196.234,291.476L205.907,291.476L205.907,296.767L196.234,296.767L196.234,305.2L206.28,305.2L206.28,310.492L190.157,310.492L190.157,279.322L206.28,279.322L206.28,284.614Z" style="fill:rgb(85,85,85);fill-rule:nonzero;"/>
        <path d="M235.01,297.346L243.815,310.492L236.457,310.492L228.892,297.925L228.809,297.925L228.809,310.492L222.732,310.492L222.732,279.322L230.959,279.322C234.211,279.322 236.76,280.087 238.606,281.617C240.453,283.146 241.376,285.509 241.376,288.706C241.376,290.801 240.811,292.681 239.681,294.349C238.551,296.016 236.994,297.015 235.01,297.346ZM228.809,284.283L228.809,293.667L229.594,293.667C231.441,293.667 232.853,293.315 233.832,292.613C234.81,291.91 235.299,290.663 235.299,288.871C235.299,287.08 234.81,285.867 233.832,285.234C232.853,284.6 231.455,284.283 229.636,284.283L228.809,284.283Z" style="fill:rgb(85,85,85);fill-rule:nonzero;"/>
        <path d="M300.077,281.968L297.224,286.184C295.957,284.476 294.4,283.621 292.553,283.621C291.561,283.621 290.679,283.959 289.907,284.634C289.136,285.309 288.75,286.143 288.75,287.135C288.75,287.824 288.977,288.437 289.432,288.975C289.887,289.512 290.479,289.953 291.21,290.298C291.94,290.642 292.746,290.993 293.628,291.352C294.51,291.71 295.385,292.13 296.253,292.613C297.121,293.095 297.92,293.66 298.651,294.307C299.381,294.955 299.973,295.823 300.428,296.912C300.883,298 301.11,299.247 301.11,300.653C301.11,303.822 300.187,306.392 298.341,308.363C296.494,310.333 294,311.318 290.858,311.318C286.89,311.318 283.693,309.293 281.268,305.242L285.195,301.397C285.636,302.665 286.373,303.74 287.406,304.621C288.44,305.503 289.577,305.944 290.817,305.944C292.03,305.944 293.001,305.503 293.731,304.621C294.462,303.74 294.827,302.679 294.827,301.438C294.827,299.675 293.821,298.31 291.809,297.346C291.478,297.18 290.679,296.85 289.411,296.354C287.124,295.417 285.395,294.321 284.223,293.067C283.052,291.813 282.467,290.07 282.467,287.838C282.467,285.22 283.335,283.008 285.071,281.203C286.807,279.398 288.97,278.495 291.561,278.495C292.994,278.495 294.544,278.819 296.212,279.467C297.879,280.115 299.167,280.948 300.077,281.968Z" style="fill:rgb(85,85,85);fill-rule:nonzero;"/>
        <path d="M326.823,284.614L326.823,310.492L320.746,310.492L320.746,284.614L314.463,284.614L314.463,279.322L333.106,279.322L333.106,284.614L326.823,284.614Z" style="fill:rgb(85,85,85);fill-rule:nonzero;"/>
        <path d="M347.575,297.966L347.575,279.322L353.652,279.322L353.652,296.767C353.652,297.704 353.672,298.524 353.714,299.227C353.755,299.929 353.886,300.742 354.106,301.666C354.327,302.589 354.616,303.34 354.974,303.919C355.333,304.497 355.87,304.993 356.587,305.407C357.303,305.82 358.157,306.027 359.15,306.027C360.142,306.027 360.996,305.82 361.713,305.407C362.429,304.993 362.967,304.497 363.325,303.919C363.683,303.34 363.972,302.589 364.193,301.666C364.413,300.742 364.544,299.929 364.586,299.227C364.627,298.524 364.648,297.704 364.648,296.767L364.648,279.322L370.724,279.322L370.724,297.966C370.724,302.045 369.787,305.29 367.913,307.701C366.039,310.113 363.118,311.318 359.15,311.318C355.181,311.318 352.26,310.113 350.386,307.701C348.512,305.29 347.575,302.045 347.575,297.966Z" style="fill:rgb(85,85,85);fill-rule:nonzero;"/>
        <path d="M387.425,310.492L387.425,279.322L396.106,279.322C400.571,279.322 404.195,280.804 406.978,283.766C409.762,286.729 411.154,290.456 411.154,294.948C411.154,299.385 409.741,303.085 406.916,306.048C404.092,309.01 400.474,310.492 396.065,310.492L387.425,310.492ZM393.502,284.614L393.502,305.2L394.494,305.2C401.411,305.2 404.87,301.769 404.87,294.907C404.87,288.045 401.411,284.614 394.494,284.614L393.502,284.614Z" style="fill:rgb(85,85,85);fill-rule:nonzero;"/>
        <rect x="426.531" y="279.322" width="6.07677" height="31.1693" style="fill:rgb(85,85,85);fill-rule:nonzero;"/>
        <path d="M463.364,311.318C458.9,311.318 455.214,309.713 452.306,306.502C449.399,303.292 447.945,299.413 447.945,294.866C447.945,290.401 449.406,286.556 452.327,283.332C455.248,280.108 458.927,278.495 463.364,278.495C467.801,278.495 471.48,280.108 474.402,283.332C477.323,286.556 478.783,290.401 478.783,294.866C478.783,299.413 477.33,303.292 474.422,306.502C471.515,309.713 467.829,311.318 463.364,311.318ZM463.364,284.49C460.774,284.49 458.603,285.523 456.853,287.59C455.103,289.657 454.228,291.999 454.228,294.617C454.228,297.125 455.138,299.537 456.957,301.852C458.776,304.167 460.911,305.324 463.364,305.324C465.817,305.324 467.953,304.167 469.772,301.852C471.591,299.537 472.5,297.125 472.5,294.617C472.5,291.999 471.625,289.657 469.875,287.59C468.125,285.523 465.955,284.49 463.364,284.49Z" style="fill:rgb(85,85,85);fill-rule:nonzero;"/>
        <path d="M511.689,281.968L508.837,286.184C507.569,284.476 506.012,283.621 504.165,283.621C503.173,283.621 502.291,283.959 501.52,284.634C500.748,285.309 500.362,286.143 500.362,287.135C500.362,287.824 500.59,288.437 501.044,288.975C501.499,289.512 502.092,289.953 502.822,290.298C503.552,290.642 504.358,290.993 505.24,291.352C506.122,291.71 506.997,292.13 507.865,292.613C508.733,293.095 509.532,293.66 510.263,294.307C510.993,294.955 511.586,295.823 512.04,296.912C512.495,298 512.722,299.247 512.722,300.653C512.722,303.822 511.799,306.392 509.953,308.363C508.106,310.333 505.612,311.318 502.47,311.318C498.502,311.318 495.305,309.293 492.88,305.242L496.807,301.397C497.248,302.665 497.985,303.74 499.019,304.621C500.052,305.503 501.189,305.944 502.429,305.944C503.642,305.944 504.613,305.503 505.344,304.621C506.074,303.74 506.439,302.679 506.439,301.438C506.439,299.675 505.433,298.31 503.421,297.346C503.091,297.18 502.291,296.85 501.024,296.354C498.736,295.417 497.007,294.321 495.836,293.067C494.664,291.813 494.079,290.07 494.079,287.838C494.079,285.22 494.947,283.008 496.683,281.203C498.419,279.398 500.583,278.495 503.173,278.495C504.606,278.495 506.156,278.819 507.824,279.467C509.491,280.115 510.78,280.948 511.689,281.968Z" style="fill:rgb(85,85,85);fill-rule:nonzero;"/>
        <circle cx="263.223" cy="116.67" r="111.008" style="fill:none;stroke-width:6.54px;stroke:rgb(251,99,72);"/>
        <circle cx="263.223" cy="116.67" r="101.271" style="fill:rgb(251,99,72);"/>
        <g>
            <clipPath id="tag1">
                <circle cx="263.223" cy="116.67" r="75.8922"/>
            </clipPath>
            <g clip-path="url(#tag1)">
                <path d="M313.557,151.05L263.223,64.2735L212.89,151.05L313.557,151.05ZM271.062,103.33L250.846,138.261L235.169,138.261L263.223,89.8527L271.062,103.33ZM278.488,116.257L291.278,138.261L265.699,138.261L278.488,116.257Z" style="fill:white;fill-rule:nonzero;"/>
            </g>
        </g>
    </g>
</svg>
